<?xml version="1.0" encoding="utf-8"?>
<!-- Generator: Adobe Illustrator 22.1.0, SVG Export Plug-In . SVG Version: 6.00 Build 0)  -->
<svg version="1.1" id="Layer_1" xmlns="http://www.w3.org/2000/svg" xmlns:xlink="http://www.w3.org/1999/xlink" wide="230.3px" height="250px"
	 viewBox="0 0 230.3 250" style="enable-background:new 0 0 230.3 250;" xml:space="preserve">
<style type="text/css">
	.st0{fill:#D31245;}
	.st1{fill:#002B5C;}
	.st2{fill:#C8CACB;}
	.st3{fill:#FFFFFF;}
	.st4{clip-path:url(#SVGID_2_);fill:#61789F;}
	.st5{clip-path:url(#SVGID_2_);fill:#002B5C;}
</style>
<g>
	<path class="st0" d="M38.7,214.6c0-12.5-5.9-17.6-18.4-17.6H0v53h10.6v-17.1H20h0.8l6.1,17.1h11.6l-7.5-20.3
		C35.8,226.7,38.7,222.4,38.7,214.6 M20.5,222.8h-9.8V207h9.7c5.1,0,7.6,2.6,7.6,7.7C27.9,219.5,25.8,222.8,20.5,222.8"/>
	<polygon class="st0" points="43.4,197 77,197 77,207.1 53.8,207.1 53.8,218.9 72.4,218.9 72.4,228.8 53.8,228.8 53.8,239.8 
		77,239.8 77,250 43.4,250 	"/>
	<path class="st0" d="M102.4,197c9.6,0,16.3,3.8,16.3,13.4c0,6.9-1.6,9.8-5.8,12.4c4.8,2.1,6.8,5.2,6.8,12.1c0,10.4-6.5,15-17,15H82
		v-53H102.4z M92.4,206.7v11.9h9.5c4.1,0,5.9-2.2,5.9-6.3c0-4-2-5.6-6-5.6H92.4z M92.4,228.2v12h9.7c4.4,0,6.6-1.7,6.6-6.1
		c0-4.2-2.4-5.9-6.6-5.9H92.4z"/>
	<polygon class="st0" points="124.6,197 158.3,197 158.3,207.1 135.1,207.1 135.1,218.9 153.7,218.9 153.7,228.8 135.1,228.8 
		135.1,239.8 158.3,239.8 158.3,250 124.6,250 	"/>
	<polygon class="st0" points="163.3,250 163.3,197 173.9,197 173.9,239.8 193,239.8 193,250 	"/>
	<path class="st0" d="M230.3,207.1c0,0-11.2,0-15.7,0c-4.1,0-6.8,1.7-6.8,4.8c0,3.5,1.5,4.4,9.5,7.8c9.4,4,12.9,6.8,12.9,15.9
		c0,10.8-6.2,14.3-17,14.3c-5.8,0-16,0-16,0v-10.2h15.1c4.1,0,7.4,0.2,7.4-3.8c0-3.2-1.3-4.2-7.8-6.9c-11.8-4.9-14.7-7.8-14.7-16.9
		c0-10.1,7.2-15.1,17.4-15.1h15.7L230.3,207.1z"/>
	<polygon class="st1" points="29.9,177.4 39.4,177.4 39.4,180.2 32.9,180.2 32.9,183.5 38.1,183.5 38.1,186.3 32.9,186.3 
		32.9,189.4 39.4,189.4 39.4,192.3 29.9,192.3 	"/>
	<polygon class="st1" points="57.5,192.3 57.5,177.4 60.4,177.4 60.4,189.4 65.8,189.4 65.8,192.3 	"/>
	<path class="st1" d="M89.1,177.4c2.7,0,4.6,1.1,4.6,3.8c0,1.9-0.5,2.8-1.6,3.5c1.3,0.6,1.9,1.5,1.9,3.4c0,2.9-1.8,4.2-4.8,4.2h-5.8
		v-14.9H89.1z M86.3,180.1v3.3H89c1.2,0,1.7-0.6,1.7-1.8c0-1.1-0.6-1.6-1.7-1.6H86.3z M86.3,186.1v3.4H89c1.2,0,1.9-0.5,1.9-1.7
		c0-1.2-0.7-1.7-1.9-1.7H86.3z"/>
	<path class="st1" d="M109.6,184.9c0-5,1.5-7.8,6.1-7.8c4.6,0,6.1,2.8,6.1,7.8c0,5-1.5,7.6-6.1,7.6
		C111,192.5,109.6,189.9,109.6,184.9 M118.7,184.9c0-3.2-0.6-4.9-3-4.9c-2.4,0-3,1.7-3,4.9c0,3.2,0.6,4.7,3,4.7
		C118.1,189.7,118.7,188.1,118.7,184.9"/>
	<path class="st1" d="M142.6,189.5c1.5,0,2.6-0.5,2.6-2.2v-9.9h3v9.9c0,3.7-1.9,5.2-5.6,5.2c-3.7,0-5.6-1.5-5.6-5.2v-9.9h3v9.9
		C140,189,141.1,189.5,142.6,189.5"/>
	<path class="st1" d="M169.8,187.4h-2.6v4.8h-3v-14.9h5.7c3.5,0,5.2,1.4,5.2,4.9c0,2.2-0.8,3.4-2.2,4.3l2.1,5.7h-3.3l-1.7-4.8H169.8
		z M169.9,180.2h-2.7v4.4h2.8c1.5,0,2.1-0.9,2.1-2.3C172,180.9,171.3,180.2,169.9,180.2"/>
	<polygon class="st1" points="190.6,177.4 195.3,177.4 199.4,188.5 199.7,188.5 199.7,177.4 202.7,177.4 202.7,192.3 198.2,192.3 
		193.9,181.1 193.6,181.1 193.6,192.3 190.6,192.3 	"/>
	<polygon class="st1" points="218.9,177.4 228.4,177.4 228.4,180.2 221.9,180.2 221.9,183.5 227.1,183.5 227.1,186.3 221.9,186.3 
		221.9,189.4 228.4,189.4 228.4,192.3 218.9,192.3 	"/>
	<polygon class="st1" points="10.6,177.4 7.7,188.1 4.7,177.4 0,177.4 0,192.3 3,192.3 3,181.1 3.3,181.1 6.2,191.6 9.2,191.6 
		12,181.1 12.3,181.1 12.3,192.3 15.3,192.3 15.3,177.4 	"/>
	<path class="st1" d="M164.4,81.7c-15.7-3.8-31.9-5.8-48.4-5.8c-16.3,0-32.3,1.9-47.9,5.6L76,106c13.1-2.5,26.5-3.8,40-3.8
		c13.5,0,26.9,1.3,40,3.8"/>
	<path class="st1" d="M142.7,136.7c-8.8-1.4-17.7-2.1-26.7-2.1c-8.5,0-17,0.6-25.4,1.9l25.4,31.6"/>
	<path class="st1" d="M154.7,110.9c-12.7-2.4-25.6-3.6-38.7-3.6c-12.7,0-25.3,1.2-37.7,3.5l9.4,21c9.3-1.5,18.8-2.3,28.3-2.3
		c9.5,0,19,0.8,28.3,2.3"/>
	<path class="st1" d="M177.8,8.7C164.1,4.6,142.8,0,116,0C90.6,0,70.2,4.2,56.4,8.1l3,34.9c18.3-4.9,37.2-7.3,56.6-7.3
		c19.7,0,38.8,2.5,57.3,7.5"/>
	<path class="st1" d="M171.4,48c-17.9-4.8-36.4-7.2-55.3-7.2c-19.1,0-37.7,2.4-55.7,7.3l6.5,28.5c16-3.9,32.5-5.8,49.2-5.8
		c16.8,0,33.2,1.9,49.2,5.8"/>
	<path class="st2" d="M66.8,76.6c-4.6,1.1-9.2,2.4-13.8,3.8c-3.3-9.6-6-19-8.2-27.5c5.1-1.8,10.3-3.4,15.5-4.8L66.8,76.6z"/>
	<path class="st2" d="M76,106c-3.9,0.8-7.7,1.6-11.6,2.6c-2-4.1-3.9-8.4-5.8-13c-1.4-3.4-2.7-6.8-3.9-10.2c4.4-1.4,8.9-2.6,13.4-3.7
		"/>
	<path class="st2" d="M78.3,110.8c-3.9,0.7-7.7,1.6-11.5,2.5c4,7.7,8.1,14.4,12.1,20.2c2.9-0.6,5.8-1.2,8.8-1.7"/>
	<path class="st2" d="M90.6,136.5c-2.8,0.4-5.6,0.9-8.3,1.5c17.8,23.5,33.8,30.1,33.8,30.1h0"/>
	<path class="st2" d="M56.4,8.1c-12.5,3.6-19.4,7-19.4,7s1.8,13.6,6.5,32.8c5.2-1.8,10.5-3.5,15.8-4.9"/>
	<path class="st2" d="M164,81.6c4.5,1.1,8.9,2.3,13.4,3.7c-1.2,3.4-2.5,6.8-3.9,10.2c-1.9,4.6-3.8,9-5.8,13c-3.8-1-7.7-1.8-11.6-2.6
		"/>
	<path class="st2" d="M144.3,131.8c2.9,0.5,5.9,1,8.8,1.7c4.1-5.8,8.2-12.5,12.1-20.2c-3.8-0.9-7.7-1.8-11.5-2.5"/>
	<path class="st2" d="M116,168.1L116,168.1c0,0,16-6.6,33.8-30.1c-2.8-0.6-5.5-1.1-8.3-1.5"/>
	<path class="st2" d="M165.2,76.6c4.6,1.1,9.2,2.4,13.8,3.8c3.3-9.6,6-19,8.2-27.5c-5.1-1.8-10.3-3.4-15.5-4.8"/>
	<path class="st2" d="M172.6,43c5.3,1.4,10.6,3,15.8,4.9c4.7-19.2,6.5-32.8,6.5-32.8s-6.9-3.4-19.4-7"/>
	<polygon class="st3" points="116,0 119.4,9.6 128.6,5.2 124.2,14.4 133.8,17.8 124.2,21.3 128.6,30.5 119.4,26.1 116,35.7 
		112.5,26.1 103.3,30.5 107.7,21.3 98.1,17.8 107.7,14.4 103.3,5.2 112.5,9.6 	"/>
	<polygon class="st3" points="116,107.3 118.7,113.6 125.6,112.8 121.5,118.4 125.6,123.9 118.7,123.2 116,129.5 113.2,123.2 
		106.4,123.9 110.4,118.4 106.4,112.8 113.2,113.6 	"/>
	<polygon class="st3" points="116,147.8 121.4,151.4 119.6,145.2 124.8,141 118.2,140.9 116,134.6 113.7,140.9 107.1,141 
		112.4,145.2 110.5,151.4 	"/>
	<path class="st3" d="M116,64.6l6.8,6.3l-0.7-9.2l9.1-1.4l-7.6-5.2l4.6-8l-8.8,2.7l-3.4-9c0,0,0,0,0,0l-3.4,9l-8.8-2.7l4.6,8
		l-7.6,5.2l9.1,1.4l-0.7,9.2L116,64.6z"/>
	<path class="st3" d="M116,96.7l5.9,5.5l-0.6-8.1l8-1.2l-6.6-4.6l4-7l-7.7,2.3l-2.9-7.8c0,0,0,0,0,0l-3,7.8l-7.7-2.4l4,7l-6.7,4.5
		l7.9,1.2l-0.6,8.1L116,96.7z"/>
</g>
<g>
	<defs>
		<path id="SVGID_1_" d="M82.2,138c17.8,23.5,33.8,30.1,33.8,30.1h0c0,0,16-6.6,33.8-30.1c-11.1-2.2-22.4-3.4-33.8-3.4
			C104.6,134.6,93.3,135.7,82.2,138 M66.8,113.2c4,7.7,8.1,14.4,12.1,20.2c12.1-2.6,24.6-4,37.1-4c12.5,0,25,1.3,37.1,4
			c4.1-5.8,8.2-12.5,12.1-20.2c-16-4-32.5-6-49.2-6C99.3,107.3,82.8,109.3,66.8,113.2 M54.7,85.3c1.2,3.4,2.5,6.8,3.9,10.2
			c1.9,4.6,3.8,9,5.8,13c16.8-4.2,34.1-6.4,51.6-6.4c17.5,0,34.8,2.2,51.6,6.4c2-4.1,3.9-8.4,5.8-13c1.4-3.4,2.7-6.8,3.9-10.2
			c-19.7-6.2-40.2-9.3-61.3-9.3C95.1,75.9,74.5,79.1,54.7,85.3 M44.8,52.9c2.2,8.5,4.9,17.9,8.2,27.5c20.3-6.4,41.5-9.6,63-9.6
			c21.6,0,42.7,3.2,63,9.6c3.3-9.6,6-19,8.2-27.5c-22.7-8-46.6-12.1-71.2-12.1C91.4,40.8,67.6,44.9,44.8,52.9 M37.1,15.1
			c0,0,1.8,13.6,6.5,32.8C66.7,39.8,91,35.7,116,35.7c25,0,49.3,4.1,72.4,12.2c4.7-19.2,6.5-32.8,6.5-32.8S164.4,0,116,0
			C67.6,0,37.1,15.1,37.1,15.1"/>
	</defs>
	<clipPath id="SVGID_2_">
		<use xlink:href="#SVGID_1_"  style="overflow:visible;"/>
	</clipPath>
	<path class="st4" d="M116.1,168.1c0,0-54.6-36-59.8-163.6l17-2.9C71.8,119.6,116.1,168.1,116.1,168.1"/>
	<path class="st5" d="M116,168.1c0,0-53-33.4-63.5-160.2l5.1-0.4C65.7,125.2,116,168.1,116,168.1"/>
	<path class="st4" d="M116,168.1c0,0,54.6-36,59.8-163.6l-17-2.9C160.2,119.6,116,168.1,116,168.1"/>
	<path class="st5" d="M116,168.1c0,0,53-33.4,63.5-160.2l-5.1-0.4C166.3,125.2,116,168.1,116,168.1"/>
</g>
</svg>
