<?xml version="1.0" encoding="utf-8"?>
<!-- Generator: Adobe Illustrator 22.1.0, SVG Export Plug-In . SVG Version: 6.00 Build 0)  -->
<svg version="1.1" id="ART" xmlns="http://www.w3.org/2000/svg" xmlns:xlink="http://www.w3.org/1999/xlink" x="0px" y="0px"
	 viewBox="0 0 1000 1000" enable-background="new 0 0 1000 1000" xml:space="preserve">
<g>
	<g>
		<g>
			<path fill="#121254" d="M757.361,196.687c23.119-15.741,35.27-35.381,36.235-58.566l12.456-1.607l-1.642-9.367
				c-10.353-59.024-45.24-83.807-63.378-92.393l14.432-15.776c0,0-24.15-2.15-45.292,0.491l18.452-14.32l-28.316,1.763
				c-55.194,3.246-102.001,36.754-124.452,62.518l0,0l16.182,9.178c18.911,8.45,50.6,30.537,75.641,61.398
				c0,0-23.565-1.426-37.557,9.268c0,0,71.432,20.436,71.432,115.977c0,0-30.929-31.372-69.223-32.798
				c0,0-21.356,37.075-89.105,53.473c0,0,25.774-29.946,30.193-64.882c0,0-36.084-25.535-73.641-33.378
				c-37.557,7.842-73.641,33.378-73.641,33.378c4.419,34.937,30.193,64.882,30.193,64.882
				c-67.75-16.399-89.106-53.473-89.106-53.473c-38.293,1.426-69.223,32.798-69.223,32.798c0-98.393,71.432-115.977,71.432-115.977
				c-13.992-10.694-37.557-9.268-37.557-9.268c26.651-33.271,62.746-51.544,81.309-59.308l18.383-7.561
				c-13.963-14.091-61.98-58.379-123.555-69.25L285.986,0l12.366,17.168c-9.029-1.133-20.134-1.358-33.544,0.219l-15.713,1.849
				l10.619,14.112c-18.806,9.298-54.098,34.285-64.516,93.681l-1.642,9.367l11.513,1.485c0.078,12.615,5.922,34.401,37.674,58.409
				c-14.503,27.215-63.058,124.519-55.141,193.51l0.93,12.23c0,0,15.987-8.622,16.966-9.489
				c7.487,33.983,35.465,128.09,122.998,180.793l8.355,4.978l4.439-8.657c0.018-0.037,1.238-2.389,3.598-5.453
				c12.149,8,42.057,29.237,86.91,71.093l1.942,1.814l2.613,0.479c1.355,0.25,33.624,6.107,71.029,6.107h2.319l0.319-0.008
				c36.507-0.246,54.188-6.351,54.938-6.608l1.83-0.629l1.414-1.321c44.857-41.86,74.769-63.098,86.91-71.093
				c2.359,3.059,3.573,5.401,3.578,5.412l4.397,8.787l8.417-5.067c87.548-52.712,115.519-146.835,123-180.808
				c0.941,0.83,16.848,9.338,16.848,9.338l1.047-12.066C820.276,321.014,772.185,224.485,757.361,196.687z M398.89,299.239
				c0,0-27.98,8.08-42.463-23.053c0,0-27.251-5.704-64.562,19.488c0,0,22.338-29.945,66.276-42.066c0,0,6.383,2.376,13.501,10.456
				c0,0-0.023,0.075-0.061,0.209c-5.403,5.37-4.821,15.477,1.615,23.414c6.863,8.462,17.783,11.249,24.391,6.225
				c0.426-0.323,1.303-1.09,1.303-1.09V299.239z M562.373,491.271c0,0,8.836-21.39,4.419-39.928c0,0-10.06-15.686-52.036-13.547
				c0,0,19.143,2.852,31.417,22.575c0,0-28.153,1.604-46.394,14.976c-19.868-12.482-46.393-14.976-46.393-14.976
				c9.083-17.584,31.416-22.575,31.416-22.575c-41.975-2.139-52.036,13.547-52.036,13.547c-4.419,18.538,4.419,39.928,4.419,39.928
				c-27.247-4.278-35.348-36.132-35.348-36.132l55.967-135.94l41.975-22.103l41.975,22.103l55.967,135.94
				C597.72,455.139,589.621,486.992,562.373,491.271z M643.668,276.186c-14.483,31.133-42.463,23.053-42.463,23.053v-6.418
				c0,0,0.877,0.768,1.303,1.09c6.608,5.024,17.528,2.237,24.391-6.225c6.436-7.937,7.018-18.044,1.615-23.414
				c-0.038-0.133-0.061-0.209-0.061-0.209c7.119-8.08,13.501-10.456,13.501-10.456c43.939,12.121,66.276,42.066,66.276,42.066
				C670.919,270.482,643.668,276.186,643.668,276.186z"/>
		</g>
		<path fill="#00A8E1" d="M620.69,271.11c0,0,0.012,0.041,0.032,0.114c2.904,2.95,2.528,8.437-1.015,12.711
			c-3.778,4.556-9.727,6.008-13.288,3.24c-0.229-0.179-0.702-0.601-0.702-0.601L620.69,271.11z"/>
		<path fill="#00A8E1" d="M379.375,271.224c0.02-0.073,0.032-0.114,0.032-0.114l14.973,15.464c0,0-0.473,0.422-0.702,0.601
			c-3.56,2.768-9.509,1.317-13.288-3.24C376.846,279.661,376.471,274.174,379.375,271.224z"/>
	</g>
	<g>
		<g>
			<g>
				<path fill="#121254" d="M367.514,727.801c3.944,1.996,5.94,5.655,5.94,10.93v11.12c0,5.988-0.95,10.122-2.899,12.451
					c-1.948,2.329-5.798,3.517-11.643,3.517h-20.767v-74.61h20.625c5.608,0,9.362,1.141,11.263,3.469s2.851,6.511,2.851,12.498
					v9.837c0,4.99-1.378,8.031-5.37,9.98V727.801z M352.687,703.374v19.722h2.519c2.709,0,3.564-0.95,3.564-3.992v-11.786
					c0-3.041-0.855-3.944-3.564-3.944H352.687z M358.912,736.64c0-3.041-0.855-3.992-3.564-3.992h-2.661v20.91h2.661
					c2.709,0,3.564-0.903,3.564-3.944V736.64z"/>
				<path fill="#121254" d="M428.377,765.819h-13.069l-5.18-21.813h-3.707v21.813H391.88v-74.61h20.625
					c5.75,0,9.552,1.141,11.5,3.469c1.901,2.329,2.851,6.511,2.851,12.498v21.718c0,5.275-1.616,9.172-4.895,11.691L428.377,765.819
					z M406.422,703.279v29.607l3.612-0.095c1.948-0.143,2.614-1.283,2.614-3.897v-21.623c0-3.041-0.855-3.992-3.564-3.992H406.422z"
					/>
				<path fill="#121254" d="M447.18,765.819v-74.61h14.542v74.61H447.18z"/>
				<path fill="#121254" d="M515.979,717.156h-13.972v-10.55c0-2.614-1.045-3.897-3.089-3.897c-2.043,0-3.089,1.283-3.089,3.897
					v9.029c0,3.042,2.281,5.418,5.323,6.843c1.473,0.713,3.137,1.568,4.895,2.566c3.517,1.996,6.701,3.897,8.697,8.079
					c0.998,2.139,1.473,4.61,1.473,7.461v9.885c0,11.358-6.13,15.92-17.298,15.92s-17.203-4.515-17.203-15.92v-10.598h13.972v10.55
					c0,2.614,1.046,3.897,3.184,3.897c2.043,0,3.089-1.283,3.041-3.897v-9.029c0-3.041-2.234-5.513-5.227-6.891
					c-1.521-0.713-3.137-1.568-4.895-2.566c-3.469-1.996-6.606-3.849-8.602-8.079c-0.998-2.091-1.521-4.562-1.521-7.414v-9.932
					c0-11.358,6.13-15.873,17.203-15.873c11.025,0,17.108,4.515,17.108,15.873V717.156z"/>
				<path fill="#121254" d="M565.711,691.209v12.166h-9.552v62.445h-14.542v-62.445h-9.552v-12.166H565.711z"/>
				<path fill="#121254" d="M599.676,690.496c5.608,0,9.932,1.236,13.021,3.659c3.041,2.471,4.562,6.558,4.562,12.308v44.101
					c0,5.75-1.521,9.837-4.562,12.261c-3.089,2.471-7.414,3.707-13.021,3.707c-5.655,0-9.98-1.236-13.021-3.707
					c-3.089-2.424-4.61-6.511-4.61-12.261v-44.101c0-5.75,1.521-9.837,4.61-12.308C589.696,691.731,594.021,690.496,599.676,690.496
					z M602.717,706.511c0-2.614-0.998-3.897-3.041-3.897c-2.043,0.048-3.089,1.331-3.089,3.897v43.958
					c0,2.614,1.045,3.897,3.089,3.897s3.041-1.283,3.041-3.897V706.511z"/>
				<path fill="#121254" d="M649.642,753.653h12.213v12.166H635.1v-74.61h14.542V753.653z"/>
			</g>
			<g>
				<path fill="#121254" d="M289.722,886.519c11.894,6.856,17.911,17.491,17.911,32.043v27.986c0,19.73-3.078,33.303-9.375,40.719
					c-6.297,7.416-19.03,11.054-38.2,11.054h-73.322V778.634h72.902c18.331,0,30.504,3.638,36.661,11.054
					c6.157,7.416,9.235,20.989,9.235,40.719v25.047c0,13.573-3.638,21.969-15.812,28.265V886.519z M233.65,825.37v43.518h12.135
					c4.478,0,5.177-1.399,5.177-5.317v-32.183c0-4.058-1.819-6.017-5.457-6.017H233.65z M251.801,910.446
					c0-3.778-0.84-5.317-5.317-5.317H233.65v45.896h12.415c4.478,0,5.737-1.679,5.737-5.737V910.446z"/>
				<path fill="#121254" d="M399.984,838.423h-21.942v36.223h33.557l-12.262,42.821h-21.295v37.516h34.203l-12.262,43.338h-73.818
					V795.214h86.08L399.984,838.423z"/>
				<path fill="#121254" d="M502.119,998.321l-1.811-29.108h-27.347l-1.682,29.108h-46.482l17.723-203.106h88.358l17.594,203.106
					H502.119z M475.807,925.746h21.914l-5.304-83.701h-11.305L475.807,925.746z"/>
				<path fill="#121254" d="M682.934,998.321h-46.702l-13.454-54.981h-9.882v54.981h-45.745V795.214h67.4
					c17.335,0,28.849,3.364,34.67,10.22c5.692,6.856,8.538,19.405,8.538,37.646v55.628c0,14.101-4.269,24.968-12.937,32.471
					L682.934,998.321z M612.896,838.294v65.589h14.371c2.07-0.647,3.105-2.329,3.105-5.304v-54.852c0-3.622-1.811-5.433-5.304-5.433
					H612.896z"/>
				<path fill="#121254" d="M812.425,871.774l-50.667-21.458v-21.308c0-3.778-4.465-5.737-7.123-5.737
					c-2.938,0-7.403,1.959-7.403,5.737v25.607c0,7.136,9.922,11.894,19.437,14.692c4.618,1.539,9.655,3.498,15.112,5.877
					c5.457,2.519,10.495,5.317,15.252,8.256c4.618,3.078,8.536,7.696,11.614,13.713c3.078,6.157,4.618,13.433,4.618,21.829v29.245
					c0,36.521-20.569,51.773-58.63,51.773c-38.2,0-58.63-15.252-58.63-51.773v-43.186l50.667,21.458v21.448
					c0,3.638,4.465,5.457,7.403,5.457c2.659,0,7.123-1.819,7.123-5.457V922.34c0-11.614-18.597-13.713-34.269-20.709
					c-5.457-2.379-10.355-5.177-14.972-8.256c-4.618-2.938-8.536-7.556-11.614-13.713c-3.218-6.017-4.758-13.293-4.758-21.829
					v-29.105c0-36.521,20.569-51.773,58.49-51.773c38.2,0,58.35,15.252,58.35,51.773V871.774z"/>
			</g>
		</g>
	</g>
</g>
<g>
</g>
<g>
</g>
<g>
</g>
<g>
</g>
<g>
</g>
<g>
</g>
<g>
</g>
<g>
</g>
<g>
</g>
<g>
</g>
<g>
</g>
<g>
</g>
<g>
</g>
<g>
</g>
<g>
</g>
</svg>
