<?xml version="1.0" encoding="utf-8"?>
<!-- Generator: Adobe Illustrator 23.1.1, SVG Export Plug-In . SVG Version: 6.00 Build 0)  -->
<svg version="1.1" id="Layer_1" xmlns="http://www.w3.org/2000/svg" xmlns:xlink="http://www.w3.org/1999/xlink" x="0px" y="0px"
	 width="1000px" height="1000px" viewBox="0 0 1000 1000" style="enable-background:new 0 0 1000 1000;" xml:space="preserve">
<style type="text/css">
	.st0{fill:#FFD300;}
	.st1{fill:#FFFFFF;}
	.st2{fill:#DD052B;}
	.st3{fill:#FFD600;}
	.st4{fill:none;}
	.st5{fill:none;stroke:#FFFFFF;stroke-width:1.5482;}
</style>
<path d="M863.6,664.4c-4.7-33-16.3-66.1-20.3-73.8l8.7-3.9c7.4-3.4,8.9-11,8.9-16.6c0-5.5-1.3-10.1-1.4-10.2
	c-5.1-17.5-26.5-52.9-38.4-68.6c1.7-0.7,4.5,0,6.2-0.9c2.4-1.5,4.4-2.9,4.5-3c0,0,2.2-1.3,3.7-4.6c1.5-3.3,0-9.2,0-9.2
	c-1.3-5.4-9.2-24.7-18.9-39.4c-13.2-19.5-27.4-33.1-36.3-39.9c-1.5-1.4-1.9-1.4-3.8-2.9c-3.3-2.6-1.5-4.8,1-3.8
	c6.1,2.5,8,4,10.5,4.9c1.5,0.5,5.3,1,6.9-0.8l2.9-2.4c2-2.9,2.9-5.9,2.8-8.3c-0.1-5.1-4.1-8.1-5.9-10c-5.2-5.2-10.7-10.3-16.2-15.1
	c-10.4-9.5-21.4-18.2-31.2-25.3c5.2-1.7,7.9-6.3,8.1-6.4l5.3-7.4c1-1.6,1.5-3.2,1.5-4.8c-0.3-5.5-4.8-7.9-6.2-9.2
	c-0.6-0.5-1.2-0.9-1.7-1.3c-1.6-2.2-3.7-3.5-4.8-4.4c-22.9-18.4-50.9-34.1-67-40.9c0.3-0.7,0.5-1.2,0.5-1.2l2.8-7.2
	c0.3-0.9,0.4-1.7,0.4-2.4c-0.1-3.3-2.3-5.4-4.2-6.7c-1.7-1.2-3.4-2-4.8-2.7c-1.9-2.5-4.3-4.5-6.6-5.8
	c-26.7-13.8-57.4-23.8-71.8-26.4l0.8-2.5l-0.1-0.7c-1-5.3-5.5-7.6-8.1-8.6c-0.1,0-0.2-0.1-0.3-0.1c-1.9-3.3-4.9-5.2-7.5-6.1
	c-23.4-8.6-49.5-14-64.9-15.7c-1.3-2.4-3.7-3.8-5.9-5c-0.6-1.5-1.8-2.6-2.9-3.5c-4.7-3.6-11.8-5.5-12-5.6c-12.2-3.5-38-5.9-54.1-5.9
	c-3.1,0-5.9,0.1-8.2,0.3c-119.3,11.4-198,159.2-211.4,188.6c-6.1,13.6-10.1,20.5-12.5,23.9c-0.8,1.1-1.4,1.8-1.8,2.2l-5-1.3
	l-10.1,29.4c-4.5,13.1-9.2,21.9-12.6,27.4c-1.7,2.7-3.2,4.6-4.1,5.8c-0.5,0.6-0.9,1-1.1,1.3c-0.2,0.2-0.3,0.3-0.3,0.3
	c-10.4,9.9-10.8,18.4-10.7,19c0.1,5,0.2,7.1,0.5,8.3c-0.3,0.4-0.8,1.1-1.2,1.7c-0.7,0.9-1.3,1.5-1.3,1.5l-4,4.5l-4.7,5.3
	c-2.9,3.4-5.9,9.9-8.6,15.9c-2.6,6-4.6,11.2-4.6,11.3c-4.3,11.5-5.4,19.8-5.4,25.2c0,4.8,0.8,7.3,0.9,7.6c1.9,5.6,5.4,8.8,8.3,10.6
	c1.9,0.8,2.7,1.6,4.6,2.8c-0.1,0.2,3,0.7,3,0.7c-4,5.6-7,11.3-7,13.6c0,1.2,0.4,2.1,0.7,2.6l1.4,2.1l0.1,0.2l1.1,1.2
	c0.3,0.4,0.5,0.6,0.6,0.7c0,0.1,0.1,0.2,0.1,0.3c-0.1,0.2-0.2,0.4-0.3,0.5c-0.3,0.5-0.6,1-0.6,1c-1.8,3-1.7,6.4-1.8,9.8
	c0,3.4,0.3,6.3,0.3,6.3c0.1,1.6,0.2,3.1,0.2,4.5c0,4-0.5,7.5-1,9.9s-1,3.6-1,3.7l-2.9,8.1c-4.1,8.2-9.4,15.8-12.3,19.8
	c-0.8,1.1-1,2.3-1,3.3c0.2,4.5,3.3,8.6,6,12.6c2.8,3.8,5.6,6.9,5.6,7l14.3,16l3.6,2.5c2.5,1.2,6.8,1.1,6.9,1.2l16.4-0.3
	c4.3-0.3,9.4,0,12.6,0c6.3,0,11.6,1.1,14.3,1.6c1.4,0.2,2.3,0.4,2.9,0.6c0.6,0.1,0.7,0.2,0.7,0.2c4.1,1.6,9.9,5.7,14.6,9.9
	c0.6,0.6,1.1,1.2,1.5,1.7c0.1,0.2,0.2,0.4,0.3,0.9c0.1,1.7-2,5.8-4.5,8.9c-2.4,3.1-4.9,5.5-4.9,5.5l-14.2,13.9L192,731.4
	c-6.5,8.8-8.5,15.6-8.5,20.8c0,6.5,3.4,9.9,3.8,10.2c1.2,1.1,2.4,1.9,3.7,2.5c1,2.3,2.2,3.4,2.4,3.6c3.4,3.1,7.4,4.2,10.9,4.2
	c1.3,0,2.6-0.1,3.8-0.4c0.2,2.2,1.3,3.8,2.5,5.8c3.4,5,9.2,10.9,12.4,14.1h78.5c7-11.6,16.3-24.8,29.7-40.3
	c13.3-15.3,25.3-26.8,35.4-35.3l3,13l2.7-0.2c0.7-0.1,1.3-0.1,2-0.1c0.9,3.8,0.9,3.8,0.9,3.8l0.6,2.6l2.8-0.2
	c6.1-0.5,12.1-0.7,18-0.7c45.8-0.1,86.3,13.2,103.8,27c11.3,8.9,19.8,11.4,25.6,11.4c2.5,0,4.4-0.4,5.8-1
	c-1.1,5.4-1.8,10.8-2.1,16.2c-0.1,1.1-0.1,2.3-0.1,3.4c0,19,9.6,36.9,21.5,47c1.8,2.1,3.3,3.8,4.8,5.3h40.8c4.3,0,8.5,0.5,12.7,1.4
	c4.3,1,8.3,2.5,11.8,4.6c0.3,0.2,0.6,0.4,0.9,0.5v-7.8l9.6,0.2c0,0-9.7-7-9.9-7.1c-1.2-1.3-3.6-4.2-4.4-10.4c-1.4-9.4-0.9-23-1.3-34
	c-0.3-7.3-0.5-13.6-1-18.3c0.9,0.8,2.1,1.3,3.2,1.5c1.7,3.8,4.3,6.1,7.6,6.2c3.1-0.1,5.1-1.8,6.5-3.1c1.4-1.4,2.2-2.6,2.3-2.7
	c6.9-10.8,18.6-25.2,19.9-38.1c5.6,6.4,11.2,14,11.2,14c7.4,10,14.4,24.9,20,42.1h28.4v8.2v36.8v4.8h0.3v7.3c5.4-4,12.2-6,19.6-6h71
	c4.2-26.8,6.4-47.5,6.7-62.1c1.5,1.5,3.3,2.3,4.8,2.7c1.7,0.5,3.3,0.7,4.2,0.7h0.1h0.7l0,0h7.7c5.5,0.1,9.5-2.8,11.2-6.1
	c1.8-3.2,2-6.6,2.2-8.4c0.9-9,1.3-18.2,1.3-27.2c0-23.2-2.6-44.9-5.5-58.1c1.3,0.3,2.5,0.4,3.5,0.4c2.8,0,5-0.6,5.1-0.6l8.1-2
	c3.5-0.7,6-3.2,7.1-5.8c1.2-2.7,1.5-5.5,1.5-8C864,667.7,863.7,665.8,863.6,664.4"/>
<path class="st0" d="M699.8,915.3h2.2v-3.1v-16.3h-1.5c-0.2,1.4-0.5,2.7-0.7,4V915.3z M758.6,808.7
	c-10.1-56.2-46.7-102.8-80.7-133.7c-17.5-16.8-34.7-29.6-47.8-37.5c-19-11.5-30.2-19.7-36.9-25.3c-3-3.2-3.2-4.5-3.2-4.5l-1.1-8.3
	c37.2,19.3,70,42.4,96.9,67c45.7,43.8,72.8,91.8,72.7,132.6C758.5,802.3,758.5,805.5,758.6,808.7 M553.1,629.6
	c0.3,3.5-3.3,8.3-3.3,8.3c-2.9,3.8-4.4,5.8-5.2,6.8c-1.3-7-3.2-14.9-5-19.3c-2.6-6.5,1.7-3.7,1.7-3.7
	C544.2,623.6,549,626.8,553.1,629.6 M535.5,677.5c4.5,2.6,7.6,4.3,9.7,5.4c1.1,2.7,2.2,5.5,2.2,5.5c4,10.3,9.4,32.2-1.4,52.1
	c-0.2,0.4-0.4,0.8-0.6,1.2c-4.3-7.9-15.3-24.4-15.3-24.4l-20.8-31.1l2.4,0.7c2.4,0.7,3.8-3,3.8-3l0.7-1.8c0.7-1.8,3.1,0.1,3.1,0.1
	c2.4,1.9,5.8,4.8,6.3,5.2s-0.5-2-0.5-2c-1-2.4-2.9-8-3.9-10.9c-1-3-0.6-4.2-0.6-4.2l0.5-1.2L535.5,677.5z M529.1,734.9
	c3.5,2.2,10.2,6.5,14.9,9.5c-1.8,3.6-3.4,7.4-4.7,11.3c-1.2-2-3.1-5.1-5.9-9.7C525,732.2,529.1,734.9,529.1,734.9 M838.9,589.1
	c-4.2-9.8-14.4-22.2-14.4-22.2c1.4,1.9,18.8,16.3,18.8,16.3s3,1.7,7.3-0.6c9.2-4.6,5.7-23.1,5.7-23.1c-5.3-18.3-29.2-57.6-39.8-69.8
	c-2.4-2.7-20.3-19.5-21.6-20.8s15.4,10.5,15.4,10.5c1.8,1.5,5.3,4,10.2,5.8c4.5,1.6,8.6-2.4,8.6-2.4c2.7-1.5,2.3-9.4,2.3-9.4
	c-4.1-12.6-9.2-26.3-18.8-38c-13-19.4-27.6-32.9-35.9-39.1C719.5,351.4,632.6,347.7,572,355c57.2-14.8,125.5-6.5,158.3,6.2
	c29.4,11.4,56.9,26.4,56.9,26.4c4.6,2.1,7.2-2.1,7.2-2.1c5.1-5.5,0.4-11-2.1-13.6c-5.1-5.2-10.5-10.2-16-14.9
	c-15.7-14.3-32.7-26.9-44.9-34.4c4,1.4,7.9,2.8,10.6,3.9c5.3,2.1,10.7-5.3,10.7-5.3l5.3-7.4c3-4.8-1.8-8-4.1-9.8
	c-0.7-0.5-1.4-1.1-2-1.6c-1.1-1.7-3.1-3.1-4.5-4.2c-23.9-19.3-53.9-35.7-68.9-41.6c0.6-2,1.4-4.1,1.4-4.1l2.8-7.2
	c1.5-4.2-4.3-6.6-7.7-8.3c-1.5-2.4-4-4.4-5.9-5.4c-27.1-14-58.8-24.2-71.9-26.2c-0.8-0.1-1.7-0.3-2.5-0.4c0-0.2,0.1-0.3,0.1-0.3
	l1.6-5c-0.5-3.3-3.9-5.3-6.1-6.1c-0.5-0.2-0.9-0.3-1.4-0.5c-1.5-3.3-3.9-4.8-6.4-5.7c-24-8.8-51.4-14.4-66-15.7
	c-0.1-2.2-3.2-4.3-6.3-5.7c-0.5-4.6-13.1-8.2-13.1-8.2c-13.8-4-48.1-6.7-61-5.5C319.3,163.1,240.3,309.9,227.2,339
	s-16.6,28.2-16.6,28.2l-3.5-0.9L198,393c-9.2,26.7-18.9,36-18.9,36c-9.8,9.4-9.8,16.8-9.8,16.8c0,7.4,0.6,8.3,0.6,8.3
	c0.6,0.9-3.4,5.3-3.4,5.3l-4,4.5l-4.7,5.2c-4.7,5.2-12.5,26.2-12.5,26.2c-7.9,20.9-4.4,30.7-4.4,30.7c1.9,5.3,4.2,8.6,6.7,9.9
	c5,3.2,9,3.1,11.1,3.8c-0.6,1.9-4.4,5.7-4.4,5.7c-5.8,8.1-4.3,10.2-4.3,10.2l1.4,2.1l1,1.1c1,1.1,1.1,1.7,1.1,1.7
	c0.2,0.6,0.5,1.1,0.5,1.1c0.4,0.5-1.7,3.5-1.7,3.5c-2.1,3-1,14.1-1,14.1c1.1,11.1-1.9,19.4-1.9,19.4l-3,8.3
	c-4.3,8.5-9.7,16.3-12.6,20.3c-3,4,10.4,19,10.4,19l13.4,14.9c0,0,0.4,0.4,2.1,1.3c2.7,1,5.2,1.2,5.2,1.2s4.6-0.1,22.1-0.4
	c21.4-1.6,27.6,3.9,27.6,3.9c4.9,1.9,10.8,6.2,15.7,10.6c0.6,0.7,1.2,1.3,1.7,1.9c4.6,5.7-9.3,19.5-9.3,19.5l-14,13.8l-14,19
	c-14,19-5.2,26.9-5.2,26.9c1.3,1.1,2.6,1.9,4,2.4c0.8,2.5,2.1,3.7,2.1,3.7c6,5.4,13.4,3.1,17.5,1.1c-0.6,1.3-1.2,2.6-1.7,3.6
	c-1.7,3.9,12.3,17.5,15.5,20.5c0.7,0.7,1.3,1.4,2,2h68.2c7.2-12.4,17.1-26.7,31.8-43.7c15.3-17.6,29.1-30.3,40.1-39.2
	c0.2,2.4,0.6,4.4,0.6,4.4l2.6,11.2c1.6-0.1,3.2-0.2,4.7-0.3c1.5,6.4,1.5,6.4,1.5,6.4c53.8-4.1,103.2,10.6,124,27s30.1,9,30.1,9
	c1.7-1.4,3.1-2.5,4.3-3.4c-2.1,7.8-3.4,15.7-3.9,23.6c-1.2,19.1,8.6,38.1,20.6,48c3,3.6,6.1,6.6,9.3,8.9h29c1.5-2.8,1.5-2.9,1.5-2.9
	c0.4,1,0.8,1.9,1.2,2.9h2.3c4.3,0,8.5,0.5,12.7,1.4c4.3,1,8.3,2.5,11.8,4.6c0.3,0.2,0.6,0.4,0.9,0.5v-7.8h4.4c0,0-3.9-1.8-7.6-5.5
	c-11.1-11.1-4.5-61.2-7.8-70.6c-3.3-9.4-10-18.6-10-18.6l-6.8-9.1c1.5-5-1.3-14.2-2.7-21.5c-3.6-19.2-12.7-29.6-23.3-38.9
	c-6.1-6.2-12.2-11-16.6-14.4c-5.1-6-5.7-10.7-5.7-10.7c-0.3-1.9-0.6-4.2-1-6.6c1.8,1.6,3.5,3.3,5.1,4.8l0,0c0.4,0.4,0.8,0.8,1.2,1.2
	c14.7,14.3,24.8,23.4,36.5,42.7c15.7,25.8,21.8,53.3,26,67.5c1.9,6.3,4.4,7.5,6.7,6.9c4.2,12.9,11.5,1.8,11.5,1.8
	c7.6-11.6,20-27.5,19.4-39c-0.1-3,1.4-3,3.7-1.4c6.3,6.9,13.1,16.2,13.1,16.2c8,10.9,15.4,26.9,21.3,45.3h24.6v8.2v36.8v4.8h0.3v7.2
	c5.4-4,12.2-6.1,19.6-6h64.6c7.3-31.2,8.8-65.5,8.1-78.4c1.2,0.8,2.2-1.5,3.4-1.1c0.1,0.5,4.1,12.5,4.2,12.9
	c1.7,2.8,2.4,3.7,5.7,4.7s8.9,0,8.9,0c9.1,0,10.3-9.2,10.7-12.9c3.8-36.6-2.9-78.9-7.4-93.2c-0.3-0.9-4.4-14.8-4.7-15.7
	c0.7,0.2,7.1,13.7,7.8,13.8c0.6,1.3,3.2,4.7,3.7,5.6c4.4,2.4,7.5,1.3,7.5,1.3l8.1-2c7.1-1.4,6.5-11,5.8-15.8
	C855.8,630.9,842.6,596.1,838.9,589.1"/>
<path class="st1" d="M256.8,545.5l5.1,14.7c6-10.6,10.2-16.4,18.7-25.3c8.6-9,14.2-13.7,24.9-20.5c-15.1,3.8-23.6,8-35.4,17.6
	C264.4,536.7,261.4,539.7,256.8,545.5"/>
<path class="st1" d="M237.1,526.9l10.2,8.9c5.6-6.2,9.1-9.4,15.6-14.7c11.3-9.1,18.6-13.6,32-19.6c-16.1,2.2-25.4,5.2-39.5,12.8
	C247.8,518.5,243.7,521.3,237.1,526.9"/>
<path class="st1" d="M211.9,517.2l13.6,6.7c7.5-8.5,12.4-12.9,21.8-19.5c9-6.4,14.6-9.5,24.9-13.8c-15.2,3.1-23.7,6-37.5,12.8
	C225.4,508.1,220.3,511.1,211.9,517.2"/>
<path d="M482.2,550.1c21.7,6.3,33.9,10.4,54.9,18.6c12.5,4.9,19.5,7.8,31.7,13.3l3.3,24.9c-14.9-12.7-23.9-19.3-40.6-30
	C513.2,565.1,502.2,559.2,482.2,550.1"/>
<path d="M430.6,511.9c24.9-0.2,39.1,0.7,63.8,4.1c23.4,3.2,36.6,5.9,59.2,12.3l8.7,28c-24.1-13-38.5-19.2-64.7-28
	C472.2,519.8,457.2,516.2,430.6,511.9"/>
<path d="M406.5,484c28.4-4.1,44.8-5.2,73.6-5.1c21,0.1,32.9,0.8,53.8,3.1l9.9,19.9c-26.2-6.8-43.2-6.9-70-11.3
	c-27.6-4.5-31.7-3.6-59.7-5.6L406.5,484z"/>
<path d="M394.5,466.4c28.2-9.9,44.8-14,74.5-18.6c14.9-2.3,23.4-3.2,38.4-4.1l15.4,20.6c-27.7-2.4-43.5-2.8-71.4-2.1
	C429.2,462.9,416.6,463.8,394.5,466.4"/>
<path d="M383.5,446.8c17.4-9.1,27.6-13.7,46-20.6c19.2-7.3,30.5-10.7,50.5-15.5l14.3,15.5c-24.2,0.8-37.9,2.4-61.6,7.2
	C413.2,437.3,402.2,440.3,383.5,446.8"/>
<path d="M362.6,431.3c19.1-14.2,30.6-21.5,51.6-33.1c12.5-6.9,19.8-10.5,32.8-16.4l16.2,8.5c-21.8,4.7-36.1,13.3-57.1,20.7
	C387.4,417.6,380.5,422.6,362.6,431.3"/>
<path d="M335.1,416.8c10.5-15.4,17.7-23.5,31.9-36c13.2-11.6,21.6-17.5,37.3-25.9l24.1,14.5c-22.9,4-35.9,8.5-56,19.6
	C356.4,397.8,347.9,404.2,335.1,416.8"/>
<path d="M297.9,406.6c8.2-18.7,14.8-28.8,28.5-44.4c10.3-11.7,16.9-17.7,29.7-26.9l26.3,9.4c-19.8,6.2-30.7,11.7-47.3,23.7
	C318.1,380.7,309.5,389.5,297.9,406.6"/>
<path d="M262.8,391c7.7-16.3,12.8-25.2,23-40.2c8.6-12.6,13.9-19.5,24.1-31l23,7.3c-14.4,9.5-22.2,15.4-35,26.8
	C282.9,367.2,275.1,375.5,262.8,391"/>
<path d="M234.2,380.8c5.9-16.3,10-25.3,18.7-40.4c6.2-10.8,10.1-16.7,17.6-26.8l17.6,3.1c-12.2,9.3-18.5,15.3-28.5,26.8
	C247.9,356.8,242.2,365.3,234.2,380.8"/>
<path class="st2" d="M558.3,645.7c20.5,18.9,24.9,23.4,39.1,46.8c12.7,20.8,18.3,33.7,25.2,56.8c5-7.7,7.1-12.8,8.7-21.7
	c2-11.1,1.5-18.1-2.2-28.8c-12.4-16.1-20.9-24.6-37.3-37.2c-14.2-10.9-14.7-12.4-31-20L558.3,645.7z"/>
<path class="st2" d="M443.1,529.1c91,18.6,337.3,83.7,348.3,234.9c1.1,14.8-7.9,64.8-24.7,94.9c5-62.9,9.7-80.2-26.8-147.9
	C707.4,650.6,596.6,569.3,443.1,529.1"/>
<path class="st2" d="M432,499.3c90.7,4,338,19.8,384.8,172.8c4.4,14.1,13.1,52.8,7.1,90.4c-14.9-63.1-41.4-90.4-81.7-138.3
	C697.7,570.9,589.3,515.2,432,499.3"/>
<path class="st2" d="M414.3,474.6c87.4-10.5,330.8-22.9,404.5,106.4c7.2,12.6,18.9,43.1,21.5,79.8c-28.1-57.8-37.6-71.4-99.8-116.4
	C678.4,499.4,565.5,464.6,414.3,474.6"/>
<path class="st2" d="M394.6,455.4c80.8-24.6,309.6-76.7,406.6,35.4c9.5,11,24.6,35.9,34.7,71c-38.5-51.1-66.4-64.4-119.9-93.2
	C662.6,439.7,536.1,420.8,394.6,455.4"/>
<path class="st2" d="M370.2,441c73.2-43.1,281.3-122.5,396.1-35.6c30.1,22.7,37.8,38.1,54.8,68.7c-46.4-37.5-72.9-50.6-138.9-74.2
	C618,379.8,498.3,385.7,370.2,441"/>
<path class="st2" d="M346.2,428.6c62.1-45.8,244.3-161.3,370.2-101.8c12.3,5.8,36.4,21.5,58.8,46.5c-53.5-28.8-80.9-38-140.6-40.5
	C582,330.1,458.1,355.2,346.2,428.6"/>
<path class="st2" d="M317.6,409.2c55.7-52.6,221.6-188.1,354.2-143.5c13,4.4,40,18.3,65.5,40.5c-56.9-22.5-73.3-22.2-146.5-21.7
	C525.3,284.9,419.1,323.5,317.6,409.2"/>
<path class="st2" d="M283.3,392.2c44.8-54,175.8-197,312.2-176.2c12.8,2,40.8,9.6,68.4,25.5C606.6,229.8,583.7,230,522,244
	C457.1,259.6,366.3,302.6,283.3,392.2"/>
<path class="st2" d="M250.2,383.9c33.6-55.6,138.7-204.5,261.4-201.8c12,0.3,39.5,3.3,66.8,14.6c-53.9-3.7-72.4-2.1-125.5,17
	C388.5,236.9,310,295.2,250.2,383.9"/>
<path class="st2" d="M222.3,378.1c24-55.3,102.2-204.8,214.9-215.2c11-1,46-0.9,70.1,9c-43.9,0.8-66.2,1.2-124,30.2
	C325.7,231.2,269.3,284.6,222.3,378.1"/>
<polygon class="st2" points="214,725.5 198.5,755.8 222.4,734.5 "/>
<polygon class="st2" points="245.3,696.1 219.4,720.7 252.4,705 "/>
<polygon class="st2" points="274.2,671.7 248.3,691.3 279.6,683.5 "/>
<path class="st2" d="M298.4,698.3c-19.5,16.2-29.1,27.4-41.8,48.7c-8.6,14.4-12.5,23.2-17.4,39.1l-15.7-14.5
	c8.9-20,16.6-30.9,33.1-46.1C270.7,712.5,280.4,706.1,298.4,698.3"/>
<path class="st2" d="M391.7,669.8c-34.8,20.6-53,35.7-79,65.7c-22.8,26.2-33.6,43.2-47.7,74.4l-13.6-16.7
	c10.5-28.7,19.7-44.6,39.5-68.6c21.2-25.6,36.4-38.6,65.7-55.8L391.7,669.8z"/>
<path class="st2" d="M382.8,711.7c25.4-8.8,30-8.9,56.9-6.7c25.3,2.1,40,6.2,62.3,17.6l17.9,31.9c-28.9-22.7-41.4-28.5-78-36.9
	c-25.7-5.9-33.3-7.4-59.7-5.4L382.8,711.7z"/>
<path class="st2" d="M394,689.3c17.7-10.1,30.1-13.7,50.8-14.7c17.2-0.9,27.4,0.5,43.6,6l15.7,23.4c-20.5-12.6-34.9-17.4-59.2-19.6
	c-19.8-1.8-24.7-3.4-43.8,2.1L394,689.3z"/>
<path d="M332.5,567.2c-1.5,21.5,0.8,34.6,9.5,54.5c6.4,14.6,11.7,22.5,22.8,34.3l26.9-1c-18.9-11.7-28.6-21-40.5-39.1
	C339.9,598.8,335.5,587.2,332.5,567.2"/>
<path d="M401.2,562.1c7.2,2.3,11.3,3.5,18.7,5.1c6.4,1.4,12.4-1.8,16.7,2.9c3.7,4,2.3,8.2,2,13.5c-0.2,3.9-3.9,6.4-2,9.9
	c2.4,4.5,8.1,1.8,13.3,2.9c5.3,1.1,10.6-1.4,13.6,2.9c2.7,3.9-1.7,7.3-1,11.8c0.8,5.8,1.5,9.9,6.1,13.8c2.8,2.3,5.4,2,8.5,3.8
	c7.4,4.6,11.1,8.9,14.3,16.7c-5.6-4.3-9.1-6.5-15.4-9.9c-4.7-2.5-7.4-4.2-12.6-5.8c-4.4-1.3-7.8,0.5-11.6-1.9
	c-6.1-4-0.4-11.5-4.1-17.6c-2.4-4-3.9-6.7-8.2-8.9c-5.3-2.8-10.9,2.6-15.7-1c-3.5-2.6-4.2-5.5-5.1-9.6c-1.3-5.7,4.9-9.6,2.1-14.7
	c-2.1-3.9-5.8-4.1-9.5-6.8C407.5,566.4,405.2,564.8,401.2,562.1"/>
<path class="st2" d="M365.8,488.7c6.9-1.9,10.9-4.8,14.6-10.6c4.8-7.6,5.3-14.8,1-22.7c-5.5-10-16.2-11.8-28.2-11.6
	c-11.6,0.2-19.5,3.5-26.9,11.8c-9.4,10.5-14.7,24.5-5.1,35c4.5,5,8.8,7.1,15.7,8c-3.6,14.2-4.4,22.7-3.4,37.2
	c1.5,20.6,4.4,33.2,15.7,50.9c14.2,22.6,28.3,34,54.1,43.9c-27.6-15.8-41.4-31.9-52.1-60.6c-7.2-19.2-10-31.9-6.1-51.9
	c2.3-12,5-18.9,11.6-29.5c-5.6,3-11,3-16.7,0c-5.6-3-7.7-7.4-8.5-13.5c-0.8-6.4-0.5-12.4,5.4-15.7c3.8-2.1,7.1-2.4,11.3-1
	c2.7,3.5,3.5,6.3,3.1,10.6c-0.4,4.8-2.2,7.9-6.1,10.9c5.7,0.1,9.4-1.2,13.6-4.8c4.8-4.2,6.6-8.6,6.1-14.7c3.8,4.9,5.1,8.7,5.1,14.7
	C369.9,480.7,368.9,484.1,365.8,488.7"/>
<path class="st2" d="M393.8,533.9c2.9-2.9,4.3-5.1,5.4-8.9c1.3-4.4,1.3-7.2,0-11.6c3.3,1,5.1,2.3,7.2,4.8s2.9,4.5,3.1,7.7
	c5.2-4.2,7.2-9,6.4-15.4c-1.3-10.8-13.6-14.9-25.2-14.7c-10.9,0.1-17.8,5-23.8,13.5c-7,9.9-8.4,20.2-2.1,30.4
	c3.4,5.4,6.6,8.2,12.6,10.9c-0.2,11.1,0.7,17.6,4.1,28.2c6,19,14.4,28.6,29,43c19.3,19.1,35.8,24.3,61.3,35.2
	c15,6.4,23.7,9.4,39.5,13.8c-26.1-10.4-40.3-18.4-62.3-35.2c-17.5-13.4-27.2-21.9-40.5-39.1c-7.3-9.4-13.2-14.2-16.7-25.3
	c-2.5-8.1-3-13.1-2-21.5c-5.7,1.1-10.2-0.2-14.3-4.1c-4.1-3.9-4.5-8-4.4-13.5c0.2-6.2,0.5-11.9,6.4-14.7c4.6-2.2,9.1-2,13.3,1
	C396,521.9,397.3,528.6,393.8,533.9"/>
<polygon class="st2" points="199.8,423.1 206.1,423.3 213.8,401.4 219.6,426.2 230.6,428.2 240.1,411.5 244.2,427.2 258.9,431 
	274.2,417.3 278.6,433.9 289.9,438.8 313.7,425.2 314.8,444.8 316.6,447.5 342,434.9 356.6,430.1 327.3,432 324.8,412.6 
	315.1,409.2 288.9,426.7 284.6,397.1 273.2,393.9 254.5,415.5 253.6,386.4 240,383.5 226.9,414.5 225.9,380.6 214.6,380 "/>
<path class="st2" d="M411.5,534.8c30.9,6,48.9,14.8,71.8,35.2l1.8,1.6c97.3,42.6,279.3,145.1,255.7,287.1
	c-2.5,15.3-12.9,53.6-37.5,87.5c17.4-65.1,12.6-84.2-2.3-155.9c-15.9-61.8-90.2-150.7-211.2-214.3c24.8,23.9,35.5,46.8,39.1,81.8
	l-13.3-7.7l-16.7-9.6c-1.4-21.9-12.4-45.6-24.4-64.4C468.3,566.4,432.8,541.2,411.5,534.8"/>
<path d="M190.4,517.1l-13.1,1.2l-14.3-3.1c0,0,8.5-7.6,13.2-8.6c4.7-1.1,9.1,0,9.1,0L190.4,517.1z M162.8,637.7c0,0-5.5-6.3-6.7-8.3
	c-0.7-1.2,0.5-3.5,0.5-3.5l6.3-18.2l15.4-7l-7.1-27.3l5.4-3.8l7.9-0.7l7.7,9.9l9.5,14.7l-12.6-34.3L185,563l-9-6.2l-9.1-3.3l9.3-4.7
	l16.1-22.4l8.5,0.3c10.2,9.1,15.8,14.5,24.9,24.6c17.8,19.7,26.6,32,39.5,54.8l-12.6-49c-1.8-7.3-4.4-11.5-10.2-16.7
	c-4.8-4.2-8.3-6.1-14.6-7.7c-9.3-2.2-14.6-4.9-21.8-10.9c-5.4-4.5-8.1-7.7-11.6-13.8l-1-11.6l10.5-16.7c3.4,2.1,6.2,2.6,10.2,1.9
	c3.3-0.6,5.2-1.6,7.5-3.9l15.7-1.9c-4.3-2.7-6.9-4-11.6-6.1c-5.1-2.3-8.2-3.3-13.6-4.8c5.3-1.1,8.3-1.7,13.6-2.9
	c4.9-1.1,7.7-1.7,12.6-2.9l9.2,1l10.5,9.6l-6.4-12.5l3.1-9.9l-7.2,6.7l-23.8-1.9l-30.3-2.9l-5.1-3.8l-1-4.8l23.9-13.8l-11.1-1.9
	l-3.5,3l-15.4,14.7v6.7l4.1,6.1l-23.7,25.8l-12.3,36l6.4,9.4l25.5,1l-18.4,25.8l5.8,8.5l-6.2,8.9l2,21.5c-2.2,7.8-3.9,12.2-7.5,19.6
	c-3.3,6.7-5.6,10.7-9.6,16.2c-0.5,0.8-1.4,2.7,0,4.4c0,0,12.4,14.8,13.6,15.9c1.1,1.1,4,1.2,4,1.2l34.3-0.5c9.9,3.6,18,3.5,26.5,9.6
	c9.9,7.1,14.9,12.1,21.8,21.8c0.3-6.9,0.3-10.8,0-17.6c-0.2-5.4-3.8-9.1-1-13.8c1.4-2.3,2.6-3.6,5.1-4.8c3-1.4,6.7-2.3,10-3
	c7.2-1.9,7.5-2.1,12.9-3.5c19-4.9,35.8-19.8,36.7-24c-3.4,4.2-16.8,9.3-27.3,11c-24.5,3.9-28.2,8.2-46.7,11.6
	c-22.8,4.1-34.2,2.9-57.5,3.3C174.3,639.9,165.5,639.5,162.8,637.7"/>
<path class="st3" d="M547.2,822.4c0,0,11.6,17,26.3,20.3s31.4,3.7,33.4,1.8c2-1.8,2.7-3.3-0.7-3.9c-3.4-0.6-14.9,0.4-26.8-16.1
	C567.4,808,547.2,822.4,547.2,822.4"/>
<path class="st2" d="M559,687.4c10.5,9,16.7,18.7,18.7,27.1c4.5,18.9-11.1,46.8-14.1,55.2c-2.9,8.4-3.6,21.6,0,31.5
	s16.3,28.9,29.6,38.3c-15.6-3.9-32.7-14.1-42-27.1c-9.3-13.1-6.4-34.3-1.1-49.6c5.3-15.3,11.9-20.8,13.2-33.1
	C564.7,717.4,565,703,559,687.4"/>
<path class="st2" d="M580.3,741.2c0,0,20.3,11.7,19.1,39.7c-0.8,19.5-0.2,36.5,4.4,45.5c6.8,13.6,15.5,17.4,15.5,17.4
	s-19.4-1.5-27-16.6c-5.8-11.4-6.8-31.4-4.9-43c1.9-11.6,3.1-19.7,0.4-27C585,749.8,580.3,741.2,580.3,741.2"/>
<path d="M868.8,686.1L902,699l39.4,74l13-33.4l-24.4-46l48.5-16.1l13.4-34.7l-79,28L879.7,658L868.8,686.1z M922.8,549.1l0.3-55.9
	l17.9,0.1l-0.4,55.9c0,5-3.5,8.3-8.8,8.3C926.1,557.4,922.8,554.4,922.8,549.1 M960.9,546.6l0.3-53.2l16.4,0.1l-0.3,53.2
	c0,4.6-3.3,7.7-8.2,7.7C963.7,554.4,960.9,551.6,960.9,546.6 M900.3,556.7c-0.1,21.9,7.6,31.8,26.7,31.9
	c14.2,0.1,21.6-5.3,23.7-17.8c3.8,10,10.3,14.6,20.9,14.7c18.7,0.1,27.7-10.6,27.9-32.8l0.6-89.3l-99.1-0.6L900.3,556.7z
	 M939.7,379.3l11.3,28.2c1.8-0.6,3.6-1.3,5.2-2c11-4.4,17.6-10,19.7-17.8c2.5-8.8-1.2-20.1-7.6-36.2l-12.6-31.4
	c-12.6-31.4-25.3-40.2-52.8-29.2L877.8,301c-12.5,5-19.7,11.3-22.7,21.4c-3,10.4,0.5,21.1,6.4,35.6l12.5,31.2
	c11.8,29.3,22.6,40.9,41.2,33.4l30.2-12.1l-25-62.2L902,356l13.3,33c-1,0.5-1.8,1-2.7,1.4c-7.8,3.1-12.4-2.7-18.3-17.3l-6.5-16.2
	c-6.6-16.4-6.2-23.8,8.2-29.6l12.8-5.1c15.7-6.3,19.8-3,27.1,15.3l6.5,16.3c5.9,14.7,7.6,21.5-2.5,25.5
	C940,379.2,939.9,379.3,939.7,379.3 M809.4,131.6l-48.5,47.9C743.2,197,746.8,211,771.5,236l23.8,24c20.6,20.9,34.9,24.5,52.4,7.3
	l48.5-47.9L874.9,198l-41.8,41.3c-10,9.9-16.1,7.7-27.1-3.3l-12-12.3c-13.1-13.3-15.5-19-5.1-29.2l41.8-41.3L809.4,131.6z M703,99.7
	c7.1,3.2,8.5,7.7,5.4,14.6c-3.8,8.6-7.6,11-15.3,7.5l-44-19.6L659,80L703,99.7z M714,77.6l-72.7-32.3L601,135.8l27.8,12.4L639,125
	l41.2,18.3c9.1,4,11.7,7.2,8.3,14.9l-6.2,13.8l27.7,12.3l8.3-18.6c4.1-9.2,1.8-17.1-6.7-23.6c12.6,2.3,19.6-3.5,26.3-18.5
	C748.4,100.2,741.4,89.8,714,77.6 M435.9,58.6c7.7-1.2,11.3,1.8,12.5,9.3c1.5,9.3-0.4,13.3-8.7,14.6l-47.5,7.6l-3.8-24L435.9,58.6z
	 M433.1,34l-78.6,12.5l15.6,97.9l30-4.8l-4-25l44.6-7.1c9.8-1.6,13.7-0.4,15.1,7.9l2.4,15l29.9-4.8l-3.2-20.1
	c-1.6-10-7.8-15.3-18.4-16.1c11.8-4.9,14.5-13.6,12-29.8C474.2,34.2,462.7,29.3,433.1,34 M302.7,93.9L290.5,73L197,127.6l49.9,85.6
	l94.6-55.1l-12.1-20.7L261,177.2l-7.6-13.1l63.5-37l-10.5-18l-63.5,37l-7.6-12.9L302.7,93.9z M200.9,262.9L144,214.2l27-31.5
	L152.5,167l-73.6,86l18.4,15.8l27-31.5l56.9,48.7L200.9,262.9z M73.7,313.2l-22.5-8.7L12.1,405.4l92.4,35.8L144,339.1l-22.4-8.7
	L93,404.3l-14-5.5l26.5-68.5L86,322.8l-26.5,68.5l-14-5.4L73.7,313.2z M100,608.1l-0.3-39.4l-35-32.6l34.5-32.7l-0.2-39l-50,47.9
	L0,468.9l0.2,36.5l35,30.9l-34.6,31L0.9,605l48.5-45.4L100,608.1z M39.2,656.5l-22.5,8.7l39.1,100.9l92.4-35.8l-39.5-102.1
	l-22.4,8.7l28.6,73.9l-14.1,5.5l-26.5-68.5l-19.4,7.5l26.5,68.5l-14,5.4L39.2,656.5z"/>
<rect x="562.6" y="883" class="st4" width="28.8" height="28.8"/>
<polygon class="st5" points="570.6,892.9 566,892.9 566,887.2 570.5,887.2 "/>
<rect x="544.2" y="864.5" class="st1" width="50.6" height="50.6"/>
<rect x="562.6" y="883" class="st4" width="28.8" height="28.8"/>
<polygon class="st5" points="570.6,892.9 566,892.9 566,887.2 570.5,887.2 "/>
<rect x="292.4" y="844.5" width="7.7" height="22.9"/>
<path d="M437.7,915.8h-5.9h-3.1v-19.7h6.2h2.8V915.8z M298.4,886.8h-73.9v-20.7h71.8l2.2,0.1L298.4,886.8z M833.6,940.2v-96.1h-99.5
	c-7.4,0-14.2,2-19.6,6v-7.3h-0.3V838v-36.8V793h-52.5c-8.7-0.1-16.3,3.2-21.4,9.6c-4.6,5.7-7,12.5-7,19.7v20.5h-3.1H622v7.8
	c-0.3-0.2-0.6-0.4-0.9-0.5c-3.5-2.1-7.5-3.6-11.8-4.6c-4.2-0.9-8.4-1.4-12.7-1.4H534c-4.8,0-9.3,0.9-13.4,2.9
	c-3.9,1.8-7.3,4.4-10.1,7.5c-2.7,3-4.8,6.5-6.2,10.2c-0.1,0.3-0.2,0.5-0.3,0.8v-13.9v-8.2h-8.2h-4.2c1.1-1.4,2-2.9,2.8-4.5l0,0
	l0.3-0.6c1.6-3.4,2.5-7,2.5-10.7v-2.3v-0.2v-0.2c-0.8-7-4.4-13.2-10-17.9c-5.6-4.8-12.6-7.2-20.1-7.2h-2.2h-0.2h-0.2
	c-7.6,0.6-14.4,3.5-19.6,8.6c-5.3,5.1-8.1,11.8-8.1,19v2v0.2v0.2c0.6,5.1,2.4,9.7,5.4,13.7h-7.7h-8.2v8.2v12.7
	c-1.5-4-3.8-7.8-6.9-11c-6.1-6.6-14.6-9.9-24.3-9.9h-26.3v-51.2l-179.5-0.1c-5.8,0-11.4,0.9-16.5,2.8c-5.2,1.9-9.8,4.5-13.7,7.8
	s-7.1,7.3-9.5,11.8c-2.5,4.7-3.9,9.9-3.9,15.2v91.8c0,5.5,0.9,10.9,2.7,16.3c1.8,5.4,4.6,10.4,8.2,14.7c3.7,4.4,8.3,8,13.7,10.6
	c5.5,2.7,11.8,4,18.7,4l325.8,0.5v-7.1c2.7,1.9,5.7,3.5,9,4.7c4.3,1.6,9,2.3,14,2.3H605c3.9,0,7.7-0.7,11.3-2.2c2.1-0.8,4-1.8,5.8-3
	v5.2h8.2h172.5c8.1,0,15.4-2.5,21.3-7.5C829.9,955.3,833.5,947.8,833.6,940.2"/>
<path class="st4" d="M428.7,896.1h6.1h2.8v19.7h-5.8h-3.1V896.1L428.7,896.1z M224.5,866.2h71.8l2.2,0.1l-0.1,20.6h-73.9V866.2z
	 M173.2,794.9c-5.2,1.9-9.8,4.5-13.7,7.8s-7.1,7.3-9.5,11.8c-2.6,4.7-3.9,9.9-3.9,15.2v91.8c0,5.5,0.9,10.9,2.7,16.2
	c1.8,5.4,4.6,10.4,8.2,14.7c3.7,4.4,8.3,8,13.7,10.6c5.5,2.7,11.9,4,18.7,4l325.8,0.5v-7.1c2.7,1.9,5.7,3.5,9,4.7
	c4.3,1.6,9,2.3,14,2.3H605c3.9,0,7.7-0.7,11.3-2.2c2.1-0.8,4-1.9,5.8-3v5.2h8.2h172.5c8.1,0,15.4-2.5,21.3-7.5
	c5.9-4.7,9.5-12.2,9.5-19.8V844h-99.5c-7.4,0-14.1,2-19.6,6v-7.2h-0.3V838v-36.8V793h-52.5c-8.7,0-16.3,3.2-21.4,9.6
	c-4.6,5.7-7,12.5-7,19.7v20.5h-3.1H622v7.8c-0.3-0.2-0.6-0.4-0.9-0.5c-3.5-2.1-7.5-3.6-11.8-4.6c-4.2-0.9-8.4-1.4-12.7-1.4H534
	c-4.8,0-9.3,0.9-13.4,2.9c-3.9,1.8-7.3,4.4-10.1,7.5c-2.7,3-4.8,6.5-6.2,10.2c-0.1,0.2-0.2,0.5-0.3,0.8v-13.9v-8.2h-8.2h-4.2
	c1.1-1.4,2-2.9,2.8-4.5l0,0l0.3-0.6c1.7-3.4,2.5-7,2.5-10.7v-2.3v-0.2v-0.2c-0.8-7-4.4-13.2-10-17.9c-5.6-4.8-12.6-7.2-20.1-7.2H465
	h-0.2h-0.2c-7.6,0.6-14.4,3.5-19.6,8.6c-5.3,5.1-8.1,11.8-8.1,19v2v0.2v0.2c0.6,5.1,2.4,9.7,5.4,13.7h-7.7h-8.2v8.2v12.7
	c-1.5-4-3.8-7.8-6.9-11c-6.1-6.6-14.6-9.9-24.3-9.9h-26.3v-51.2l-179.5-0.1C183.9,792.1,178.3,793,173.2,794.9"/>
<path class="st2" d="M819.3,952.6c-4.4,3.7-9.7,5.6-16,5.6h-92.4v-38.4H752l-41.2-8.6v-38.1c0-5.5,2.2-10.5,6.6-14.9
	c4.4-4.4,10.1-6.6,17.2-6.6h89.1v37.6h-36.3l38.4,8.3v41.6C825.9,944.4,823.7,948.9,819.3,952.6 M692.2,886.9v35.7h11v35.7h-72.3
	v-35.7h11.6v-36.2h-11.6v-35.9h11.3v-28.6c0-5.4,1.7-10.2,5.2-14.5s8.4-6.5,15-6.5h44.2v36.7l-14.6,0.2v12.7h14.9v36.4L692.2,886.9
	L692.2,886.9z M575.7,884.2h-10.4v8.3h10.1L575.7,884.2z M625.3,946.6c-1.1,2.2-2.6,4.2-4.6,5.9c-1.9,1.7-4.2,3.1-6.9,4.2
	c-2.6,1.1-5.4,1.6-8.2,1.6h-66.8c-4.1,0-7.8-0.6-11.1-1.8s-6.3-2.9-8.7-5s-4.3-4.6-5.6-7.5c-1.3-2.8-2-5.8-2-8.9V875
	c0-2.6,0.5-5.3,1.5-8.1s2.5-5.3,4.6-7.6c2-2.3,4.5-4.1,7.5-5.5c2.9-1.4,6.2-2.1,9.9-2.1h62.5c3.7,0,7.3,0.4,10.8,1.2
	c3.6,0.8,6.7,2,9.5,3.7c2.7,1.6,5,3.7,6.7,6.1c1.7,2.5,2.6,5.3,2.6,8.6v46h-61v6.3h61v16.1C627,942.1,626.4,944.4,625.3,946.6
	 M435.7,958.2V923h11v-35.9h-11v-36.2h61V923h11v35.2H435.7L435.7,958.2z M488.3,834.1c-1.1,2.3-2.6,4.4-4.4,6.2
	c-1.8,1.9-4,3.3-6.6,4.4c-2.5,1.1-5.2,1.6-8.1,1.6h-1.5c-5.7,0-10.6-1.7-14.6-5.1c-4.1-3.4-6.4-7.7-7-13v-1.5c0-5,1.9-9.4,5.6-13.1
	c3.8-3.7,8.6-5.7,14.5-6.2h1.8c5.7,0,10.6,1.8,14.8,5.3c4.2,3.5,6.6,7.7,7.2,12.6v1.7C490,829.4,489.5,831.8,488.3,834.1
	 M367.4,958.2v-71.1h-5.8v71.1h-65.9v-35.7h11.9v-86h-12.5v-35.2h66.8v53l4.3-3.4h30.2c7.7,0,13.8,2.4,18.3,7.2s6.7,10.6,6.7,17.3
	V923h11.3v35.2H367.4L367.4,958.2z M190.5,957.8c-5.7,0-10.7-1.1-15.1-3.2c-4.4-2.1-8-4.9-11-8.4s-5.2-7.5-6.7-12s-2.3-9-2.3-13.6
	v-91.4c0-3.9,1-7.7,2.9-11.2c1.9-3.6,4.5-6.7,7.6-9.4c3.2-2.7,6.9-4.8,11.1-6.4c4.3-1.5,8.8-2.3,13.7-2.3H289v57.4h-54.9v-17.6
	h-16.8v78h16.8v-23.5h57v64L190.5,957.8z"/>
<path class="st1" d="M291.1,799.8h-4.9h-95.4c-4.8,0-9.4,0.8-13.7,2.3c-4.2,1.5-8,3.7-11.1,6.4s-5.7,5.8-7.6,9.4
	c-1.9,3.5-2.9,7.4-2.9,11.2v91.5c0,4.5,0.8,9.1,2.3,13.5c1.5,4.5,3.8,8.5,6.7,12s6.7,6.3,11,8.4c4.4,2.1,9.5,3.2,15.1,3.2
	c32.6,0.2,65.2,0.3,97.8,0.5h2.9v-64h-57v2.8v20.6h-16.8v-78h16.8v17.6h2.9h49.2h4.9L291.1,799.8L291.1,799.8z M161.1,829.2
	L161.1,829.2c0-2.9,0.7-5.8,2.2-8.5c1.6-2.9,3.7-5.6,6.3-7.8s5.7-4,9.4-5.4c3.6-1.3,7.6-2,11.7-2h94.6v46h-45.6v-11.9v-2.8V834H234
	h-16.8h-2.9h-2.9v5.7v78v2.9v2.8h5.7h16.8h2.9h2.8v-5.7V900h45.6v52.6c-31.6-0.2-63.3-0.3-94.9-0.5v2.9v-3v2.9V952l0,0
	c-4.9,0-9.1-0.9-12.6-2.6c-3.7-1.8-6.7-4.1-9.1-7c-2.5-2.9-4.4-6.3-5.7-10.1c-1.3-3.9-2-7.8-2-11.7L161.1,829.2L161.1,829.2z"/>
<path class="st1" d="M361.9,801.3h-66.8v35.2h2.9h9.6v86.1h-11.9v35.6h2.8h60.2h2.8v-2.8v-68.3h5.8v68.3v2.8h2.9h59.6h2.8V923h-2.8
	h-8.4v-47.7c0-6.6-2.3-12.5-6.7-17.2c-2.3-2.4-5-4.3-8-5.5c-3.1-1.2-6.5-1.8-10.2-1.8h-29.2h-1l-4.3,3.4V804L361.9,801.3
	L361.9,801.3z M300.8,807L300.8,807h55.4v47.3v11.9l9.3-7.4l2.7-2.2h28.2c3.2,0,5.9,0.5,8.2,1.4c2.3,0.9,4.2,2.2,5.9,4
	c3.5,3.9,5.1,8,5.2,13.3V923v2.9v2.8h5.7h5.6v23.8h-53.9v-65.4v-2.9v-2.8h-5.7h-5.8h-2.8H356v5.7v65.4h-54.5v-24.3h6.2h2.8h2.9v-5.7
	v-86.1v-2.8v-2.9h-5.7h-6.8V807H300.8z"/>
<path class="st1" d="M496.7,850.9h-2.8h-55.3h-2.8v2.9v30.4v2.9h2.8h8.2V923h-11v2.9v29.5v2.8h2.8h66.3h2.9v-2.8v-29.5V923h-11
	v-69.2v-2.9H496.7z M441.4,856.6L441.4,856.6H491V923v2.9v2.8h5.7h5.2v23.8h-60.6v-23.8h5.3h2.8h2.8V923v-35.9v-2.9v-2.8h-5.7h-5.3
	v-24.8H441.4z"/>
<path class="st1" d="M468.2,807.4H468h-1.8h-0.1H466c-5.6,0.4-10.5,2.5-14.2,6.2c-1.9,1.8-3.3,3.8-4.2,6c-1,2.2-1.4,4.6-1.4,7.1v1.5
	v0.2v0.2c0.6,4.9,3,9.3,7,12.6c4,3.4,9,5.2,14.5,5.2h0.1h1.5c2.8,0,5.6-0.5,8.1-1.6c2.5-1,4.7-2.5,6.6-4.4c1.8-1.9,3.3-3.9,4.4-6.2
	l-2.6-1.3l2.6,1.3l-2.6-1.3l2.6,1.3c1.1-2.3,1.6-4.7,1.6-7.1v-1.7v-0.2V825c-0.6-4.6-3.1-8.8-7.1-12.2
	C478.7,809.2,473.7,807.4,468.2,807.4 M451.8,826.7L451.8,826.7c0-1.8,0.3-3.4,0.9-4.9c0.7-1.4,1.6-2.8,3-4.1
	c2.9-2.7,6.3-4.2,10.8-4.6h1.6c4.5,0,8,1.3,11.2,3.9c3.1,2.6,4.7,5.4,5.1,8.4v1.5c0,1.5-0.3,3.1-1.1,4.6l-0.1,0.1
	c-0.9,1.7-1.9,3.2-3.3,4.6c-1.3,1.3-2.8,2.4-4.7,3.1c-1.8,0.8-3.8,1.1-5.9,1.1h-1.5c-4.5,0-7.9-1.2-11-3.8c-3-2.5-4.5-5.3-4.9-8.7
	v-1.2H451.8z"/>
<path class="st1" d="M597.4,851.7h-62.5c-3.6,0-7,0.7-9.9,2c-2.9,1.4-5.4,3.2-7.5,5.5c-2,2.3-3.6,4.8-4.6,7.6
	c-1,2.7-1.5,5.4-1.5,8.1V935c0,3.1,0.7,6.1,2,8.9c1.3,2.8,3.2,5.4,5.6,7.5c2.5,2.1,5.4,3.8,8.7,5c3.4,1.2,7.2,1.8,11.1,1.8h66.8
	c2.9,0,5.7-0.5,8.3-1.6c2.5-1,4.9-2.4,6.8-4.1c1.9-1.7,3.5-3.7,4.6-5.9l-2.5-1.3l2.5,1.3l-2.5-1.3l2.5,1.3l-2.5-1.3l2.5,1.3
	c1.1-2.2,1.7-4.6,1.7-7v-16.1h-2.9H566v-6.3h58.2h2.9v-2.9v-43.1c0-3.2-0.9-6.1-2.6-8.6c-1.7-2.4-4-4.5-6.7-6.1s-5.9-2.9-9.4-3.7
	C604.7,852.1,601,851.7,597.4,851.7 M517.1,874.9L517.1,874.9c0-1.9,0.4-3.9,1.2-6.1c0.8-2.1,1.9-4,3.5-5.8c1.5-1.7,3.3-3.1,5.6-4.1
	c2.1-1,4.6-1.5,7.5-1.5h62.5c3.2,0,6.4,0.4,9.6,1.1c3,0.7,5.6,1.7,7.8,3c2.1,1.2,3.7,2.7,5,4.5c1,1.5,1.5,3,1.5,5.3v40.2H566h-2.9
	h-2.8v5.7v6.3v2.9v2.8h5.7h55.3v10.4c0,1.6-0.3,3-1.1,4.4l0,0c-0.8,1.5-1.9,2.9-3.3,4.2c-1.4,1.2-3.2,2.3-5.2,3.1s-4,1.2-6.1,1.2
	h-66.8c-3.4,0-6.5-0.5-9.2-1.5s-5.1-2.4-6.9-4c-1.8-1.6-3.2-3.5-4.2-5.6s-1.5-4.3-1.5-6.5L517.1,874.9L517.1,874.9z M622.8,945.3
	l2.5,1.3L622.8,945.3z"/>
<path class="st1" d="M706.6,800.8h-44.3h-0.2c-3,0-5.8,0.5-8.2,1.5c-2.6,1.1-4.7,2.8-6.4,4.9c-3.4,4.2-5.2,9.2-5.2,14.5v28.6h-8.4
	h-2.8v35.9h11.6v36.2h-11.6v2.8v30v2.8h72.3v-2.8v-30v-2.8h-11v-35.7h11.8h2.8V884v-30.7v-2.9h-15v-12.7c3.9-0.1,7.9-0.1,11.8-0.2
	l2.8-0.1v-2.8v-31V800.8L706.6,800.8z M647.9,821.8L647.9,821.8c0-4.2,1.2-7.6,3.9-11c1.2-1.5,2.5-2.5,4.2-3.2
	c1.6-0.7,3.7-1.1,6.2-1.1h38.6v25.4c-3,0.1-6,0.1-9.1,0.2h-2.8h-2.8v5.6v12.7v2.9v2.8h5.7h9.2v25h-8.9h-2.9h-2.9v5.7v35.7v2.8v2.9
	h5.7h5.3v24.3h-60.9v-24.3h5.9h2.9h2.8v-5.7v-36.2v-2.8v-2.9h-5.7h-5.9v-24.5h5.6h2.9h2.8v-5.7L647.9,821.8L647.9,821.8z"/>
<path class="st1" d="M823.7,851.7h-2.8h-86.2c-3.5,0-6.7,0.5-9.6,1.6c-2.9,1.1-5.5,2.8-7.7,5c-2.1,2.1-3.8,4.4-4.9,6.9
	c-1.1,2.5-1.6,5.2-1.6,7.9V909v2.3l2.3,0.5c12.1,2.5,24.3,5,36.4,7.5l-0.1,0.5h-38.6v38.4h92.4h0.1c6.1,0,11.5-1.8,15.9-5.6
	c2.1-1.8,3.8-3.8,4.9-6.1c1.1-2.3,1.7-4.7,1.7-7.3v-39.3v-2.3l-2.3-0.5c-11.2-2.4-22.5-4.8-33.7-7.3v-0.5h30.9h2.8L823.7,851.7
	L823.7,851.7z M716.5,952.5v-27h38l1.1-10.8l-2.5-0.5c-12.2-2.5-24.4-5.1-36.7-7.6v-33.5c0-2,0.4-3.8,1.2-5.6s2-3.5,3.7-5.3
	c1.7-1.7,3.5-2.8,5.7-3.7c2.1-0.8,4.6-1.3,7.5-1.3H818v26.3h-30.6h-2.6l-1.2,10.7l2.5,0.5c11.3,2.5,22.6,4.9,34,7.3v37
	c0,1.8-0.3,3.3-1.1,4.8c-0.7,1.5-1.8,2.9-3.5,4.3c-3.4,2.9-7.2,4.2-12.3,4.3L716.5,952.5L716.5,952.5z"/>
<path d="M868.9,798.3H879c1.7,0,3,0.2,4.1,0.7c2,0.9,3,2.6,3,5.1c0,1.3-0.3,2.4-0.8,3.2s-1.3,1.5-2.2,2c0.8,0.3,1.5,0.8,1.9,1.4
	c0.4,0.6,0.7,1.5,0.7,2.7l0.1,2.9c0,0.8,0.1,1.4,0.2,1.8c0.2,0.7,0.5,1.1,0.9,1.3v0.5h-3.6c-0.1-0.2-0.2-0.4-0.2-0.7
	c-0.1-0.3-0.1-0.9-0.2-1.7l-0.2-3.6c-0.1-1.4-0.6-2.4-1.6-2.9c-0.6-0.3-1.4-0.4-2.6-0.4h-6.7v9.3h-2.9V798.3L868.9,798.3z
	 M878.7,808.2c1.4,0,2.5-0.3,3.3-0.8s1.2-1.5,1.2-3s-0.6-2.6-1.7-3.2c-0.6-0.3-1.4-0.4-2.4-0.4h-7.2v7.4H878.7L878.7,808.2z"/>
<path d="M895,809.3c0,9.7-7.9,17.6-17.6,17.6c-9.7,0-17.6-7.9-17.6-17.6c0-9.7,7.9-17.6,17.6-17.6S895,799.6,895,809.3 M896.8,809.3
	c0-10.7-8.7-19.4-19.4-19.4s-19.4,8.7-19.4,19.4s8.7,19.4,19.4,19.4C888.1,828.8,896.8,820.1,896.8,809.3"/>
<rect x="564.4" y="883.3" class="st1" width="12" height="9.2"/>
</svg>
