<?xml version="1.0" encoding="utf-8"?>
<!-- Generator: Adobe Illustrator 15.1.0, SVG Export Plug-In  -->
<!DOCTYPE svg PUBLIC "-//W3C//DTD SVG 1.1//EN" "http://www.w3.org/Graphics/SVG/1.1/DTD/svg11.dtd" [
	<!ENTITY ns_flows "http://ns.adobe.com/Flows/1.0/">
]>
<svg version="1.1"
	 xmlns="http://www.w3.org/2000/svg" xmlns:xlink="http://www.w3.org/1999/xlink" xmlns:a="http://ns.adobe.com/AdobeSVGViewerExtensions/3.0/"
	 x="0px" y="0px" width="1000px" height="1000px" viewBox="-14.15 0 1000 1000"
	 overflow="visible" enable-background="new -14.15 0 1000 1000" xml:space="preserve">
<defs>
</defs>
<path d="M26,934.4v-8.798c0-19.604,0.465-32.065,2.095-38.112c5.82-0.369,11.406-0.55,17.225-0.55c22.347,0,34.917,1.65,40.038,9.16
	l-0.931-15.207c-6.519-0.732-14.898-1.101-25.14-1.101c-17.691,0-31.891,0.55-43.064,0.55H0.161c5.82,4.765,5.82,23.273,5.82,56.252
	v7.517c0,31.515-0.232,49.11-5.82,53.688h31.658C26,992.671,26,977.827,26,952.358v-8.979h8.612c25.372,0,39.805-0.919,47.486-10.63
	c-11.406,1.651-22.114,2.201-32.588,2.201C42.992,934.95,35.31,934.763,26,934.4L26,934.4z"/>
<path fill-rule="evenodd" clip-rule="evenodd" d="M98.28,997.799h29.794c-0.697-1.832-1.164-3.664-1.164-5.678
	c0-8.065,4.423-16.308,9.544-26.019l10.009-19.24h54.237l23.51,50.937h25.373c-13.268-14.839-33.52-53.869-57.728-117.456h-28.865
	c1.165,1.832,1.862,3.665,1.862,5.679c0,2.569-6.517,19.79-22.812,49.66C127.377,962.801,113.411,983.511,98.28,997.799
	L98.28,997.799z M150.188,940.078l25.141-47.273l21.88,47.273H150.188L150.188,940.078z"/>
<path d="M285.366,880.343c5.82,4.765,5.82,23.273,5.82,56.252v7.517c0,31.515-0.234,49.11-5.82,53.688h8.147
	c19.553,0,35.382,0.369,47.718,0.369c9.311,0,17.226-0.551,23.278-1.469l5.121-18.322c-9.078,10.262-22.346,12.825-43.994,12.825
	c-3.957,0-7.915,0-12.338-0.182c-1.164-4.396-2.095-21.072-2.095-49.66v-7.511c0-31.334,0.234-48.924,5.82-53.507H285.366
	L285.366,880.343z"/>
<path d="M505.012,880.343c-11.639,0-23.046-2.2-34.684-2.2c-50.046,0-79.145,23.823-79.145,62.122
	c0,35.549,29.563,59.735,69.602,59.735c27.235,0,47.253-11.361,52.607-28.038c-10.242,9.166-24.907,14.476-41.668,14.476
	c-33.984,0-57.496-19.24-57.496-51.487c0-30.421,20.251-48.742,53.539-48.742c17.459,0,29.331,6.597,35.848,19.24L505.012,880.343
	L505.012,880.343z"/>
<path fill-rule="evenodd" clip-rule="evenodd" d="M605.83,1000c45.856,0,75.886-25.105,75.886-64.318
	c0-38.112-23.278-57.539-69.135-57.539c-48.882,0-75.188,22.354-75.188,63.218C537.394,978.928,562.067,1000,605.83,1000
	L605.83,1000z M613.046,991.202c-32.357,0-52.142-19.604-52.142-54.788c0-32.435,19.089-50.024,49.115-50.024
	c29.562,0,48.418,20.522,48.418,55.889C658.438,973.612,640.746,991.202,613.046,991.202L613.046,991.202z"/>
<path d="M733.674,894.269c44.228,51.675,75.419,85.76,90.084,104.081h15.131v-60.654c0-34.447,0.465-53.319,6.052-57.353h-22.112
	c5.584,5.134,6.052,19.791,6.052,45.26l-0.233,51.312c-28.167-30.239-50.514-58.641-71.463-83.009
	c-8.613-10.079-10.241-13.562-17.922-13.562h-24.209c8.38,4.765,8.61,20.154,8.61,47.829c0,40.126-2.327,63.218-8.61,69.627h27.001
	c-6.518-7.697-7.45-22.173-7.681-44.34L733.674,894.269L733.674,894.269z"/>
<path d="M876.34,993.034c14.897,4.402,28.398,6.966,41.199,6.966c31.193,0,53.309-16.677,53.309-35.548
	c0-14.295-12.107-23.824-35.849-33.717c-18.156-7.516-32.356-13.012-32.356-26.019c0-10.63,10.94-18.509,31.425-18.509
	c14.2,0,24.907,4.215,30.729,11.912v-19.059h-5.821c-1.862,0-3.258-0.182-4.424-0.182c-4.421,0-12.801-0.737-24.674-0.737
	c-30.261,0-48.417,13.562-48.417,30.602c0,18.327,18.156,25.287,42.365,35.735c16.294,6.96,24.907,13.926,24.907,24.919
	c0,12.644-11.87,22.354-30.495,22.354c-18.156,0-32.818-6.598-41.897-18.69V993.034L876.34,993.034z"/>
<path d="M14.151,749.616c33.61,35.796,57.314,59.404,68.458,72.098h11.498v-42.013c0-23.862,0.354-36.935,4.598-39.729H81.901
	c4.246,3.554,4.6,13.711,4.6,31.35l-0.178,35.543c-21.404-20.94-38.384-40.615-54.306-57.501c-6.544-6.982-7.783-9.392-13.62-9.392
	H0c6.368,3.301,6.544,13.964,6.544,33.127c0,27.802-1.769,43.796-6.544,48.235h20.52c-4.953-5.331-5.66-15.355-5.838-30.717
	L14.151,749.616L14.151,749.616z"/>
<path d="M140.021,821.334h14.504c14.859,0,26.888,0.254,36.264,0.254c7.075,0,13.09-0.38,17.69-1.013l3.007-12.693
	c-7.43,7.235-19.989,8.76-39.977,8.76h-10.261c-1.238-3.939-1.591-12.952-1.591-26.784v-8.253c1.946,0,3.538,0.127,4.6,0.127
	c18.22,0,31.133-0.507,39.446-7.362c-8.845,1.145-18.927,1.397-30.249,1.397c-5.129,0-9.729,0-13.797-0.253v-4.192
	c0-13.832,0.354-22.718,1.591-26.651h9.906c18.573,0,28.833,0.633,32.195,6.982l-1.416-11.935c-3.538,0-5.483-0.126-6.191-0.126
	c-9.198,0-24.058,0.38-44.754,0.38h-10.967c4.422,3.301,4.422,16.12,4.422,38.97v5.205
	C144.443,805.979,144.267,818.16,140.021,821.334L140.021,821.334z"/>
<path d="M328.734,821.973h14.682c15.036-46.079,24.411-73.622,35.202-82.001h-23.349c2.476,2.541,3.36,5.204,3.36,9.012
	c0,3.934-1.946,12.819-6.722,26.53l-12.382,35.923l-20.52-55.218c-1.591-4.188-2.124-6.982-2.124-8.38
	c0-2.663,1.415-5.199,4.068-7.867h-30.248c3.008,2.795,4.6,5.964,4.6,9.265c0,3.808-1.945,12.693-7.606,25.007l-17.158,37.193
	c-3.008-15.361-6.899-35.416-13.975-60.296c-3.007-10.278-3.892-11.169-12.029-11.169h-11.322
	c4.953,3.554,16.982,31.224,25.826,82.001h15.213c6.191-18.024,18.751-40.368,28.657-68.802l19.812,50.266
	C325.019,809.147,327.319,815.244,328.734,821.973L328.734,821.973z"/>
<path d="M477.958,739.972c-8.846,0-17.513-1.524-26.357-1.524c-38.032,0-60.143,16.5-60.143,43.031
	c0,24.626,22.466,41.38,52.89,41.38c20.696,0,35.91-7.868,39.978-19.422c-7.783,6.35-18.927,10.03-31.663,10.03
	c-25.828,0-43.694-13.331-43.694-35.67c0-21.072,15.39-33.766,40.686-33.766c13.267,0,22.289,4.572,27.242,13.332L477.958,739.972
	L477.958,739.972z"/>
<path fill-rule="evenodd" clip-rule="evenodd" d="M491.282,821.334h22.641c-0.531-1.271-0.884-2.536-0.884-3.934
	c0-5.584,3.359-11.296,7.252-18.024l7.606-13.326h41.215l17.868,35.284h19.281c-10.085-10.283-25.474-37.319-43.869-81.362h-21.937
	c0.886,1.271,1.416,2.541,1.416,3.934c0,1.777-4.954,13.711-17.336,34.398C513.392,797.093,502.778,811.437,491.282,821.334
	L491.282,821.334z M530.729,781.352l19.103-32.748l16.63,32.748H530.729L530.729,781.352z"/>
<path d="M621.489,818.033c11.322,3.048,21.581,4.825,31.312,4.825c23.702,0,40.508-11.549,40.508-24.627
	c0-9.897-9.199-16.5-27.24-23.355c-13.799-5.199-24.588-9.013-24.588-18.024c0-7.362,8.313-12.82,23.878-12.82
	c10.793,0,18.93,2.922,23.351,8.253v-13.199h-4.421c-1.416,0-2.479-0.126-3.361-0.126c-3.361,0-9.73-0.512-18.751-0.512
	c-22.995,0-36.794,9.392-36.794,21.199c0,12.692,13.799,17.519,32.194,24.753c12.382,4.82,18.927,9.646,18.927,17.26
	c0,8.76-9.021,15.488-23.172,15.488c-13.799,0-24.942-4.572-31.842-12.946V818.033L621.489,818.033z"/>
<path d="M744.114,821.334h24.057c-4.423-3.301-4.423-15.994-4.423-38.965c0-10.536,0.179-22.47,0.886-35.796l21.581-0.126
	c8.845,0,14.68-1.524,19.104-6.476h-89.861l-4.245,10.029c5.838-2.795,11.32-3.174,17.513-3.174h18.751
	c0.883,12.06,1.06,23.229,1.06,33.766v4.945C748.535,806.484,748.358,818.16,744.114,821.334L744.114,821.334z"/>
<path d="M818.553,739.972c4.421,3.301,4.421,16.12,4.421,38.97v5.205c0,21.832-0.176,34.014-4.421,37.188h6.19
	c14.857,0,26.888,0.254,36.263,0.254c7.076,0,13.09-0.38,17.689-1.013l3.893-12.693c-6.899,7.108-16.982,8.886-33.433,8.886
	c-3.007,0-6.014,0-9.376-0.126c-0.886-3.049-1.593-14.603-1.593-34.398v-5.205c0-21.705,0.176-33.893,4.421-37.066H818.553
	L818.553,739.972z"/>
<path d="M900.235,821.334h14.506c14.858,0,26.886,0.254,36.261,0.254c7.078,0,13.092-0.38,17.691-1.013l3.007-12.693
	c-7.43,7.235-19.988,8.76-39.978,8.76h-10.261c-1.238-3.939-1.593-12.952-1.593-26.784v-8.253c1.947,0,3.54,0.127,4.6,0.127
	c18.223,0,31.133-0.507,39.449-7.362c-8.845,1.145-18.93,1.397-30.25,1.397c-5.131,0-9.728,0-13.799-0.253v-4.192
	c0-13.832,0.354-22.718,1.593-26.651h9.906c18.574,0,28.833,0.633,32.195,6.982l-1.414-11.935c-3.541,0-5.486-0.126-6.193-0.126
	c-9.199,0-24.057,0.38-44.753,0.38h-10.968c4.424,3.301,4.424,16.12,4.424,38.97v5.205
	C904.659,805.979,904.479,818.16,900.235,821.334L900.235,821.334z"/>
<path d="M68.168,0c0,0,74.517,155.985,204.298,223.805c161.546,84.422,250.37,107.568,342.847,133.182
	c95.306,26.397,148.24,50.012,162.867,90.067c15.581,42.662-38.674,59.902-38.674,59.902s28.74-14.166,19.064-34.862
	c-5.188-11.103-15.675-20.44-58.726-36.702c-39.162-14.796-220.175-79.035-308.026-117.074
	c-120.502-52.177-162.915-81.12-231.961-158.503C98.993,91.604,68.168,0,68.168,0L68.168,0z"/>
<path d="M429.379,374.377c0,0-134.13-18.037-211.261-56.068C149.836,284.642,102.195,212.67,102.195,212.67
	s75.239,64.98,151.733,100.085C314.439,340.525,429.379,374.377,429.379,374.377L429.379,374.377z"/>
<path d="M386.058,387.708c0,0-47.014,12.915-102.985,7.776c-49.549-4.55-97.949-36.669-97.949-36.669s61.462,18.558,116.023,25.528
	C353.581,391.039,386.058,387.708,386.058,387.708L386.058,387.708z"/>
<path fill-rule="evenodd" clip-rule="evenodd" d="M658.143,457.941c0,0-19.408,6.938-49.097,30.024
	c-56.783,44.157-26.22,124.607,78.923,157.613c56.588,17.761,89.319,13.084,98.546,19.417c3.125,2.14-0.014,5.7-4.173,15.278
	c-3.98,9.167-1.989,15.774,3.838,23.549c4.253,5.678,10.5,7.031,10.5,7.031s-10.347-10.388-1.229-26.255
	c7.105-12.368,18.993-17.821,42.046-18.872c33.975-1.552,24.085,31.438,24.085,31.438s25.249-33.7-13.152-42.965
	c-31.358-7.56-46.794,12.209-150.144-27.631c-33.743-13.007-73.432-56.296-74.521-92.989
	C621.956,472.672,658.143,457.941,658.143,457.941L658.143,457.941z"/>
</svg>
