<?xml version="1.0" encoding="utf-8"?>
<!-- Generator: Adobe Illustrator 21.0.2, SVG Export Plug-In . SVG Version: 6.00 Build 0)  -->
<svg version="1.1" id="Layer_1" xmlns="http://www.w3.org/2000/svg" xmlns:xlink="http://www.w3.org/1999/xlink" x="0px" y="0px"
	 width="1000px" height="1000px" viewBox="0 0 1000 1000" style="enable-background:new 0 0 1000 1000;" xml:space="preserve">
<style type="text/css">
	.st0{fill:#0C7048;}
	.st1{fill:#020203;}
	.st2{fill:#FFFFFF;}
	.st3{fill:#211C1D;}
	.st4{fill:#DA171A;}
</style>
<g>
	<path class="st0" d="M774.1,74.1c0,0-76.6-68.2-273.2-68.2C310,5.9,210.6,75.2,210.6,75.2s-98.7,258.3,9.6,481.4
		c45.4,93.7,136.6,204.8,279.2,258.7c139.7-59.7,233.3-171,280.5-259.9C897.5,333.8,774.1,74.1,774.1,74.1z"/>
	<path class="st1" d="M499.5,821.7l-2.2-0.8c-171.9-64.9-254.7-204.6-282.4-261.6c-31.2-64.3-64.5-173.4-45.9-327.6
		c11.1-92.1,35.9-157.8,36.2-158.4l0.6-1.7l1.5-1C211.3,67.5,310.3,0,500.9,0c196.6,0,274,66.8,277.1,69.7l0.9,0.8l0.5,1.1
		c0.3,0.7,31.4,66.7,47.5,159.1c14.9,85.4,19.7,211.6-41.9,327.5c-29.3,55-115.4,190.8-283.4,262.6L499.5,821.7z M215.5,79.1
		c-3.9,10.9-25,71.7-34.9,154.2c-10,83.5-10.4,206.9,44.9,320.8c26.9,55.5,107.3,191.1,273.7,254.9
		c163.1-70.6,246.9-202.6,275.4-256.3c60-113,55.2-236.3,40.7-320c-14.7-84.2-41.9-145.9-46-154.9c-4.2-3.4-23.5-18.1-61-32.6
		C668.9,29.9,601,11.8,500.9,11.8c-97.5,0-170.3,18.6-214.2,34.1C245.6,60.5,221.5,75.2,215.5,79.1L215.5,79.1z"/>
	<path class="st2" d="M500.3,751.6c120-50.5,190.7-142.3,231.4-217.4c96.5-177.8-4.8-428.1-4.8-428.1s-80.7-46-227.5-46
		S256,106.3,256,106.3S173.4,348.4,266.5,537C305.6,616.2,377.7,706.1,500.3,751.6"/>
	<path class="st3" d="M331.8,417v-14.6l12.7,2l0,14.6L331.8,417z"/>
	<path class="st1" d="M376.6,403.1l-2.5-4.1c-0.7-1.1-0.7-1.2-2-0.7c-6.9,2.3-14.2,3.4-21.5,3.2c-0.2-24.2-2.2-256.2-2.2-262.9
		c0-0.6-6.5-17.3-8.4-17.6s-9,15.1-9,15.1l-4.4,261.6c-7.6-2.3-14.9-5.6-21.5-10c-1.4-0.9-1.4-0.8-2.1,0.1l-2.6,3.2
		c-0.8,1.1-1.2,1.3,0.2,2.7c6.4,6.6,20.7,12.1,33.3,14.8c-3.6,3.8-6.1,13-6.1,24.2c-0.1,9.7,1.8,18.4,4.6,23.8
		c-2.9,1.1-4.9,3.9-4.9,7c0,5.2,4.9,10.1,10.8,11s11-2.5,11-7.6c0-3.5-2.2-6.8-5.5-8.9c2.8-4.5,4.6-12.6,4.6-22.1
		c0-11.1-2.4-21.1-5.9-26c12.8,1.4,27.4,0.3,33.9-4.2C377.8,404.7,377.3,404.3,376.6,403.1z"/>
	<path class="st0" d="M617.5,384.9c-4,5.9-11,10.3-11,10.3s0.9-4.5,5.3-13.1c9.1-18,26.9-49.9,19-88.6c-1.7-8.7-5.6-25.2-5.6-25.2
		C631.5,270.5,662.2,317.5,617.5,384.9"/>
	<path class="st0" d="M616.4,246.8c-9.9-0.5-40.1-13.5-44.4-15.6s-31.8-20.6-44.7-2.5c-12.3,17.2-5.1,47.9,20.6,58.4
		c5.7,2.2,11.8,2.8,17.8,1.6c0,0-1.6,21.6,12.4,34.2c13.7,12.4,30,13.5,34.8-2.9s-2.6-51.4,6.6-61.9c2.8-3.1,7.7-4.1,12.9,0.2
		c0,0,12.7,9.2,27.1,33.3c29.7,49.4,77.9,17.7,36.3-23.6c0,0,9.4,0,15.1-7.6c4.5-6,13.2-25.9-9.4-48.3c-18.2-18-32.1-5.2-38,0
		s-20.6,25.4-29.6,29.9c-6.6,3.4-4.4-6.7-1.4-12.9c54.7-112.5-29.4-134.4-45-90.5c-0.9,2.9-1.7,5.8-2.4,8.8c0,0-2.7-2.6-5-4.6
		c-8.1-6.8-22.1-12-34.8-3c-14.2,10.1-22.6,49.1,24,70.5c23.1,10.6,34.1,18.6,40.2,23.7C618.1,241.1,621.8,247,616.4,246.8"/>
	<path class="st0" d="M564.2,635.6c-2.1,0.4-4.2,0.4-6.2,0c1.8-1.8,4.1-3,6.5-3.5c9.3-2.3,25-8.1,36.7-21.5c2.8-3.2,8.8-9.6,8.8-9.6
		C610.6,603.6,605,627.4,564.2,635.6"/>
	<path class="st0" d="M615.6,591.8c-1.9-2.7-4.2-13.5-4.3-15.1s-0.4-13-8.5-12c-7.7,1-17.6,11.5-15.5,20.6c0.8,3.2,4.2,5.3,4.2,5.3
		s-7.2,2.9-8.2,9.6c-0.9,6.4,3.5,11.1,9.4,8.4c5.9-2.7,15-13,20-13.2c1.5,0,2.8,1,2.7,3.4c0,0-0.2,5.5-4.5,14.9
		c-8.9,19.4,16,16.1,16,1.3c0,0,3.9,3.2,7.3,2.9c2.7-0.3,9-2.6,11.1-13.8c1.7-9-6.8-8.2-9.7-8.4c-2.8-0.2-11.9,0.8-15.1-0.4
		c-2.4-0.9,1.1-2.9,3.6-3.5c47.1-10.1,34.6-39.7,18.2-33.2c-1.5,0.6-3.2,1.5-3.2,1.5s0.3-1.3,0.4-2.4c0.4-3.7-0.9-8.5-6.2-9.6
		c-6-1.2-20.9,7.5-17.8,24.5c1.6,8.4,1.8,10.3,1.5,14.4C616.7,591,616.6,593.3,615.6,591.8"/>
	<path class="st0" d="M609.7,521.1c0,0,25.8-53.1,60.4-77.9c4.7-3.3,7.3-2.6,7.3-2.6c-0.3,2-1.3,3.9-2.8,5.3
		c-39.2,31.7-56.6,75.5-64.1,89.7c-1.8,3.4-3.5,1.5-3.6,0.8c-1.6-11.9-4.4-34.1-21.5-51.2c-3.2-3.3-6.2-6.8-9-10.5
		C579.6,474,600.4,486.3,609.7,521.1"/>
	<path class="st0" d="M570.1,462.1c-4.5,1-20.2-2-22.3-2.6s-17.6-6.6-20.6,4c-2.8,10.2,5.2,24.8,18.4,27c2.8,0.5,5.7,0.1,8.3-1.2
		c0,0,2.7,11,10.9,15.7s15.6,3.3,15.2-5.6s-9.1-25.6-6.7-31.9c0.8-1.9,2.8-3,5.9-1.4c0,0,7.1,3.1,17.4,13.5
		c21,21.4,37.8-0.4,12.6-16.2c2.7-0.8,4.8-2.9,5.6-5.6c1-3.6,1.9-14.6-11.8-23.2c-10.9-6.9-15.3,1.2-17.2,4.5s-5.2,15.2-8.6,18.7
		c-2.5,2.4-3-2.9-2.7-6.4c7.1-63.2-34.2-64.2-34.3-40.1c0,1.5,0.1,3.1,0.2,4.6c-0.9-0.6-1.9-1.2-2.9-1.7c-4.8-2.5-11.8-3.4-16.2,2.7
		c-4.9,6.8-2.6,27.4,21.8,32.6c12.1,2.6,18.3,5.3,21.8,7.1C569.9,459.2,572.6,461.7,570.1,462.1"/>
	<path class="st0" d="M687.8,429.7c4.8,1.9,22.8,1.6,25.5,1.4s20.8-3.9,22.2,8.5c1.3,11.9-10.5,26.6-25.7,26.6c-3.2,0-6.3-1.1-8.9-3
		c0,0-5,11.8-15.2,15.5c-9.8,3.6-18,0.7-15.9-9.1s15.1-26.8,13.6-34.4c-0.6-2.2-2.7-3.8-6.3-2.7c0,0-8.5,2.1-22,11.8
		c-27.6,19.8-42.1-7.7-11-20.6c-2.8-1.5-4.7-4.2-5.1-7.4c-0.6-4.1,0.6-16.6,17.5-23.6c13.6-5.6,16.8,4.2,18.2,8.4s3,18,6.1,22.4
		c2.3,3.2,3.9-2.6,4.1-6.6c4.2-71.9,50.5-65.1,46-38.3c-0.3,1.8-0.7,3.5-1.2,5.2c0,0,2.1-0.8,3.7-1.3c5.7-1.8,13.8-1.5,17.5,6.1
		c4.1,8.4-2.4,31.1-30.5,32.3c-14,0.6-21.4,2.4-25.8,3.7C688.5,426.4,685.1,428.7,687.8,429.7"/>
	<path class="st4" d="M534,650.9l-0.3-87.6c-19.4-2.8-38.1-6.1-55.9-9.7V75.8c-30.5,0.9-61.4,4-61.4,4l0.2,459.5
		c-93.4-25.1-151-55.1-151-55.1c2.8,13.1,30.1,70.4,30.1,70.4c-3.8-2.8,45.9,40.4,120.9,70l0,65.9c34.4,23.5,61.2,32,61.2,32v-79.2
		C496.3,647.3,515.1,649.9,534,650.9"/>
	<path class="st1" d="M193.9,894.9h16.3V984h26.9v14.8h-43.2V894.9z"/>
	<path class="st1" d="M242.9,919.8c0-16.6,8.8-26.1,24.8-26.1s24.8,9.5,24.8,26.1v54c0,16.6-8.8,26.1-24.8,26.1s-24.8-9.5-24.8-26.1
		L242.9,919.8z M259.2,974.9c0,7.4,3.3,10.2,8.5,10.2s8.5-2.8,8.5-10.2v-56.1c0-7.4-3.3-10.2-8.5-10.2s-8.5,2.8-8.5,10.2V974.9z"/>
	<path class="st1" d="M317.6,923.5v75.3h-14.7V894.9h20.5l16.8,62.2v-62.2h14.5v103.9h-16.8L317.6,923.5z"/>
	<path class="st1" d="M366.4,894.9h25.8c16.3,0,24.4,9,24.4,25.7v52.6c0,16.6-8,25.7-24.4,25.7h-25.8V894.9z M382.8,909.7V984h9.2
		c5.2,0,8.3-2.7,8.3-10.1v-54c0-7.4-3.1-10.1-8.3-10.1L382.8,909.7z"/>
	<path class="st1" d="M425.7,919.8c0-16.6,8.8-26.1,24.8-26.1s24.8,9.5,24.8,26.1v54c0,16.6-8.8,26.1-24.8,26.1s-24.8-9.5-24.8-26.1
		V919.8z M442,974.9c0,7.4,3.3,10.2,8.5,10.2s8.5-2.8,8.5-10.2v-56.1c0-7.4-3.3-10.2-8.5-10.2s-8.5,2.8-8.5,10.2V974.9z"/>
	<path class="st1" d="M500.4,923.5v75.3h-14.7V894.9h20.5l16.8,62.2v-62.2h14.5v103.9h-16.8L500.4,923.5z"/>
	<path class="st1" d="M572.2,894.9h16.3v103.9h-16.3V894.9z"/>
	<path class="st1" d="M634.6,998.8c-0.9-2.7-1.5-4.3-1.5-12.8v-16.3c0-9.7-3.3-13.2-10.7-13.2h-5.6v42.3h-16.3V894.9h24.6
		c16.9,0,24.2,7.9,24.2,23.9v8.2c0,10.7-3.4,17.7-10.7,21.1c8.2,3.4,10.8,11.3,10.8,22.1v16c0,5,0.2,8.8,1.8,12.6L634.6,998.8z
		 M616.8,909.7v31.9h6.4c6.1,0,9.8-2.7,9.8-11v-10.2c0-7.4-2.5-10.7-8.3-10.7H616.8z"/>
	<path class="st1" d="M660.1,894.9h16.3v103.9h-16.3V894.9z"/>
	<path class="st1" d="M710.3,893.7c15.9,0,24,9.5,24,26.1v3.3h-15.4v-4.3c0-7.4-3-10.2-8.2-10.2s-8.2,2.8-8.2,10.2
		c0,21.4,31.9,25.4,31.9,55.1c0,16.6-8.3,26.1-24.3,26.1s-24.3-9.5-24.3-26.1v-6.4h15.4v7.4c0,7.4,3.3,10.1,8.5,10.1
		s8.5-2.7,8.5-10.1c0-21.4-31.9-25.4-31.9-55.1C686.3,903.2,694.4,893.7,710.3,893.7z"/>
	<path class="st1" d="M760.2,998.8h-16.3V894.9h16.3v44.5h18.6v-44.5h16.6v103.9h-16.6v-44.5h-18.6V998.8z"/>
</g>
</svg>
